<svg width="317" height="45" viewBox="0 0 317 45" fill="none" xmlns="http://www.w3.org/2000/svg">
<mask id="path-1-outside-1_1_49" maskUnits="userSpaceOnUse" x="-1" y="-1" width="319" height="46" fill="black">
<rect fill="white" x="-1" y="-1" width="319" height="46"/>
<path d="M0.36 34V0.399998H4.68V15.28H14.76V0.399998H19.08V34H14.76V18.64H4.68V34H0.36ZM31.8131 34.48C30.3731 34.48 29.1091 34.272 28.0211 33.856C26.9651 33.44 26.1331 32.688 25.5251 31.6C24.9171 30.48 24.6131 28.88 24.6131 26.8C24.6131 24.784 24.9171 23.248 25.5251 22.192C26.1331 21.104 26.9651 20.368 28.0211 19.984C29.1091 19.568 30.3731 19.36 31.8131 19.36C32.5491 19.36 33.3491 19.408 34.2131 19.504C35.1091 19.6 35.9091 19.712 36.6131 19.84V17.68C36.6131 15.504 36.1491 14.08 35.2211 13.408C34.3251 12.736 33.0291 12.4 31.3331 12.4H26.5331V10.48C27.2691 10.224 28.1651 10 29.2211 9.808C30.3091 9.616 31.3331 9.52 32.2931 9.52C34.2131 9.52 35.8131 9.744 37.0931 10.192C38.3731 10.608 39.3331 11.408 39.9731 12.592C40.6131 13.744 40.9331 15.44 40.9331 17.68V34H37.3331L37.0931 32.56H36.8531C36.2451 33.168 35.4931 33.648 34.5971 34C33.7011 34.32 32.7731 34.48 31.8131 34.48ZM33.2531 31.6C33.8611 31.6 34.4851 31.504 35.1251 31.312C35.7651 31.088 36.2611 30.864 36.6131 30.64V22.24H33.2531C32.4531 22.24 31.7171 22.368 31.0451 22.624C30.4051 22.88 29.8931 23.344 29.5091 24.016C29.1251 24.656 28.9331 25.584 28.9331 26.8C28.9331 28.08 29.1251 29.072 29.5091 29.776C29.8931 30.448 30.4051 30.928 31.0451 31.216C31.7171 31.472 32.4531 31.6 33.2531 31.6ZM47.1825 43.6V10H50.7825L51.0225 11.44H51.2625C51.8705 10.832 52.6225 10.368 53.5185 10.048C54.4145 9.696 55.3425 9.52 56.3025 9.52C57.9985 9.52 59.4225 9.904 60.5745 10.672C61.7585 11.408 62.6545 12.688 63.2625 14.512C63.9025 16.304 64.2225 18.8 64.2225 22C64.2225 25.2 63.9025 27.712 63.2625 29.536C62.6545 31.328 61.7585 32.608 60.5745 33.376C59.4225 34.112 57.9985 34.48 56.3025 34.48C55.3425 34.48 54.4785 34.368 53.7105 34.144C52.9745 33.92 52.2385 33.632 51.5025 33.28V43.6H47.1825ZM54.8625 31.6C55.9185 31.6 56.8145 31.344 57.5505 30.832C58.3185 30.288 58.8945 29.328 59.2785 27.952C59.6945 26.544 59.9025 24.56 59.9025 22C59.9025 19.44 59.6945 17.472 59.2785 16.096C58.8945 14.688 58.3185 13.728 57.5505 13.216C56.8145 12.672 55.9185 12.4 54.8625 12.4C54.2545 12.4 53.6305 12.496 52.9905 12.688C52.3505 12.88 51.8545 13.104 51.5025 13.36V30.64C51.8545 30.864 52.3505 31.088 52.9905 31.312C53.6305 31.504 54.2545 31.6 54.8625 31.6ZM73.815 44.08C73.111 44.08 72.359 43.968 71.559 43.744C70.791 43.552 70.103 43.344 69.495 43.12V41.2H72.855C73.655 41.2 74.327 41.024 74.871 40.672C75.447 40.32 75.927 39.648 76.311 38.656C76.727 37.696 77.095 36.304 77.415 34.48C75.847 34.48 74.599 33.968 73.671 32.944C72.743 31.92 72.071 30.512 71.655 28.72L67.335 10H71.655L75.975 28.72C76.199 29.68 76.487 30.368 76.839 30.784C77.191 31.168 77.575 31.36 77.991 31.36L81.975 10H86.295L81.735 34.48C81.127 37.84 80.199 40.272 78.951 41.776C77.703 43.312 75.991 44.08 73.815 44.08ZM90.87 34V10H95.19V30.88H101.67V10H105.99V30.88H112.47V10H116.79V34H90.87ZM132.146 34.48C129.746 34.48 127.81 34.112 126.338 33.376C124.866 32.608 123.778 31.328 123.074 29.536C122.402 27.712 122.066 25.2 122.066 22C122.066 18.8 122.386 16.304 123.026 14.512C123.666 12.688 124.61 11.408 125.858 10.672C127.106 9.904 128.642 9.52 130.466 9.52C132.322 9.52 133.858 9.904 135.074 10.672C136.322 11.408 137.266 12.688 137.906 14.512C138.546 16.304 138.866 18.8 138.866 22V23.44H126.386C126.386 26.544 126.898 28.688 127.922 29.872C128.978 31.024 130.706 31.6 133.106 31.6H137.906V33.52C137.202 33.744 136.306 33.952 135.218 34.144C134.13 34.368 133.106 34.48 132.146 34.48ZM126.386 20.56H134.546C134.546 18.384 134.354 16.688 133.97 15.472C133.586 14.256 133.09 13.408 132.482 12.928C131.874 12.416 131.202 12.16 130.466 12.16C129.762 12.16 129.09 12.416 128.45 12.928C127.842 13.408 127.346 14.256 126.962 15.472C126.578 16.688 126.386 18.384 126.386 20.56ZM144.167 34V10H148.487V20.32H156.407V10H160.727V34H156.407V23.44H148.487V34H144.167ZM166.948 34V10H171.268V26.32H171.508L178.708 10H183.748V34H179.428V17.2H179.188L171.508 34H166.948ZM190.011 34.48C189.403 34.48 188.811 34.4 188.235 34.24C187.659 34.08 187.371 34 187.371 34V32.08C188.331 32.08 189.003 31.92 189.387 31.6C189.803 31.28 190.091 30.88 190.251 30.4L191.451 27.04C191.835 25.952 192.267 25.184 192.747 24.736C193.227 24.288 193.771 23.968 194.379 23.776V23.584C193.323 23.52 192.347 23.216 191.451 22.672C190.587 22.096 189.883 21.328 189.339 20.368C188.827 19.376 188.571 18.24 188.571 16.96C188.571 14.944 188.923 13.408 189.627 12.352C190.363 11.264 191.387 10.528 192.699 10.144C194.043 9.728 195.627 9.52 197.451 9.52C198.891 9.52 200.235 9.6 201.483 9.76C202.731 9.888 203.947 10.128 205.131 10.48V34H200.811V24.64H199.179C197.675 24.64 196.619 25.44 196.011 27.04L194.811 30.4C194.299 31.776 193.691 32.8 192.987 33.472C192.315 34.144 191.323 34.48 190.011 34.48ZM197.451 21.52H200.811V12.4H197.451C196.011 12.4 194.891 12.72 194.091 13.36C193.291 13.968 192.891 15.168 192.891 16.96C192.891 18.752 193.291 19.968 194.091 20.608C194.891 21.216 196.011 21.52 197.451 21.52ZM210.906 34L212.586 10H217.626L223.29 25.12H223.482L229.146 10H234.186L235.866 34H231.786L230.586 16.96H230.346L225.306 30.4H221.466L216.426 16.96H216.186L214.986 34H210.906Z"/>
<path d="M240.42 34.24V28.96H244.74V34.24H240.42Z"/>
<path d="M250.016 34V0.399998H254.336V15.28H264.416V0.399998H268.736V34H264.416V18.64H254.336V34H250.016ZM276.909 34V0.399998H293.229V3.76H281.229V14.8H291.789V18.16H281.229V30.64H293.229V34H276.909ZM304.759 34V3.76H297.079V0.399998H316.759V3.76H309.079V34H304.759Z"/>
</mask>
<path d="M0.36 34V0.399998H4.68V15.28H14.76V0.399998H19.08V34H14.76V18.64H4.68V34H0.36ZM31.8131 34.48C30.3731 34.48 29.1091 34.272 28.0211 33.856C26.9651 33.44 26.1331 32.688 25.5251 31.6C24.9171 30.48 24.6131 28.88 24.6131 26.8C24.6131 24.784 24.9171 23.248 25.5251 22.192C26.1331 21.104 26.9651 20.368 28.0211 19.984C29.1091 19.568 30.3731 19.36 31.8131 19.36C32.5491 19.36 33.3491 19.408 34.2131 19.504C35.1091 19.6 35.9091 19.712 36.6131 19.84V17.68C36.6131 15.504 36.1491 14.08 35.2211 13.408C34.3251 12.736 33.0291 12.4 31.3331 12.4H26.5331V10.48C27.2691 10.224 28.1651 10 29.2211 9.808C30.3091 9.616 31.3331 9.52 32.2931 9.52C34.2131 9.52 35.8131 9.744 37.0931 10.192C38.3731 10.608 39.3331 11.408 39.9731 12.592C40.6131 13.744 40.9331 15.44 40.9331 17.68V34H37.3331L37.0931 32.56H36.8531C36.2451 33.168 35.4931 33.648 34.5971 34C33.7011 34.32 32.7731 34.48 31.8131 34.48ZM33.2531 31.6C33.8611 31.6 34.4851 31.504 35.1251 31.312C35.7651 31.088 36.2611 30.864 36.6131 30.64V22.24H33.2531C32.4531 22.24 31.7171 22.368 31.0451 22.624C30.4051 22.88 29.8931 23.344 29.5091 24.016C29.1251 24.656 28.9331 25.584 28.9331 26.8C28.9331 28.08 29.1251 29.072 29.5091 29.776C29.8931 30.448 30.4051 30.928 31.0451 31.216C31.7171 31.472 32.4531 31.6 33.2531 31.6ZM47.1825 43.6V10H50.7825L51.0225 11.44H51.2625C51.8705 10.832 52.6225 10.368 53.5185 10.048C54.4145 9.696 55.3425 9.52 56.3025 9.52C57.9985 9.52 59.4225 9.904 60.5745 10.672C61.7585 11.408 62.6545 12.688 63.2625 14.512C63.9025 16.304 64.2225 18.8 64.2225 22C64.2225 25.2 63.9025 27.712 63.2625 29.536C62.6545 31.328 61.7585 32.608 60.5745 33.376C59.4225 34.112 57.9985 34.48 56.3025 34.48C55.3425 34.48 54.4785 34.368 53.7105 34.144C52.9745 33.92 52.2385 33.632 51.5025 33.28V43.6H47.1825ZM54.8625 31.6C55.9185 31.6 56.8145 31.344 57.5505 30.832C58.3185 30.288 58.8945 29.328 59.2785 27.952C59.6945 26.544 59.9025 24.56 59.9025 22C59.9025 19.44 59.6945 17.472 59.2785 16.096C58.8945 14.688 58.3185 13.728 57.5505 13.216C56.8145 12.672 55.9185 12.4 54.8625 12.4C54.2545 12.4 53.6305 12.496 52.9905 12.688C52.3505 12.88 51.8545 13.104 51.5025 13.36V30.64C51.8545 30.864 52.3505 31.088 52.9905 31.312C53.6305 31.504 54.2545 31.6 54.8625 31.6ZM73.815 44.08C73.111 44.08 72.359 43.968 71.559 43.744C70.791 43.552 70.103 43.344 69.495 43.12V41.2H72.855C73.655 41.2 74.327 41.024 74.871 40.672C75.447 40.32 75.927 39.648 76.311 38.656C76.727 37.696 77.095 36.304 77.415 34.48C75.847 34.48 74.599 33.968 73.671 32.944C72.743 31.92 72.071 30.512 71.655 28.72L67.335 10H71.655L75.975 28.72C76.199 29.68 76.487 30.368 76.839 30.784C77.191 31.168 77.575 31.36 77.991 31.36L81.975 10H86.295L81.735 34.48C81.127 37.84 80.199 40.272 78.951 41.776C77.703 43.312 75.991 44.08 73.815 44.08ZM90.87 34V10H95.19V30.88H101.67V10H105.99V30.88H112.47V10H116.79V34H90.87ZM132.146 34.48C129.746 34.48 127.81 34.112 126.338 33.376C124.866 32.608 123.778 31.328 123.074 29.536C122.402 27.712 122.066 25.2 122.066 22C122.066 18.8 122.386 16.304 123.026 14.512C123.666 12.688 124.61 11.408 125.858 10.672C127.106 9.904 128.642 9.52 130.466 9.52C132.322 9.52 133.858 9.904 135.074 10.672C136.322 11.408 137.266 12.688 137.906 14.512C138.546 16.304 138.866 18.8 138.866 22V23.44H126.386C126.386 26.544 126.898 28.688 127.922 29.872C128.978 31.024 130.706 31.6 133.106 31.6H137.906V33.52C137.202 33.744 136.306 33.952 135.218 34.144C134.13 34.368 133.106 34.48 132.146 34.48ZM126.386 20.56H134.546C134.546 18.384 134.354 16.688 133.97 15.472C133.586 14.256 133.09 13.408 132.482 12.928C131.874 12.416 131.202 12.16 130.466 12.16C129.762 12.16 129.09 12.416 128.45 12.928C127.842 13.408 127.346 14.256 126.962 15.472C126.578 16.688 126.386 18.384 126.386 20.56ZM144.167 34V10H148.487V20.32H156.407V10H160.727V34H156.407V23.44H148.487V34H144.167ZM166.948 34V10H171.268V26.32H171.508L178.708 10H183.748V34H179.428V17.2H179.188L171.508 34H166.948ZM190.011 34.48C189.403 34.48 188.811 34.4 188.235 34.24C187.659 34.08 187.371 34 187.371 34V32.08C188.331 32.08 189.003 31.92 189.387 31.6C189.803 31.28 190.091 30.88 190.251 30.4L191.451 27.04C191.835 25.952 192.267 25.184 192.747 24.736C193.227 24.288 193.771 23.968 194.379 23.776V23.584C193.323 23.52 192.347 23.216 191.451 22.672C190.587 22.096 189.883 21.328 189.339 20.368C188.827 19.376 188.571 18.24 188.571 16.96C188.571 14.944 188.923 13.408 189.627 12.352C190.363 11.264 191.387 10.528 192.699 10.144C194.043 9.728 195.627 9.52 197.451 9.52C198.891 9.52 200.235 9.6 201.483 9.76C202.731 9.888 203.947 10.128 205.131 10.48V34H200.811V24.64H199.179C197.675 24.64 196.619 25.44 196.011 27.04L194.811 30.4C194.299 31.776 193.691 32.8 192.987 33.472C192.315 34.144 191.323 34.48 190.011 34.48ZM197.451 21.52H200.811V12.4H197.451C196.011 12.4 194.891 12.72 194.091 13.36C193.291 13.968 192.891 15.168 192.891 16.96C192.891 18.752 193.291 19.968 194.091 20.608C194.891 21.216 196.011 21.52 197.451 21.52ZM210.906 34L212.586 10H217.626L223.29 25.12H223.482L229.146 10H234.186L235.866 34H231.786L230.586 16.96H230.346L225.306 30.4H221.466L216.426 16.96H216.186L214.986 34H210.906Z" fill="white"/>
<path d="M240.42 34.24V28.96H244.74V34.24H240.42Z" fill="#0040FF"/>
<path d="M250.016 34V0.399998H254.336V15.28H264.416V0.399998H268.736V34H264.416V18.64H254.336V34H250.016ZM276.909 34V0.399998H293.229V3.76H281.229V14.8H291.789V18.16H281.229V30.64H293.229V34H276.909ZM304.759 34V3.76H297.079V0.399998H316.759V3.76H309.079V34H304.759Z" fill="#FF1900"/>
<path d="M0.36 34H-0.14V34.5H0.36V34ZM0.36 0.399998V-0.100002H-0.14V0.399998H0.36ZM4.68 0.399998H5.18V-0.100002H4.68V0.399998ZM4.68 15.28H4.18V15.78H4.68V15.28ZM14.76 15.28V15.78H15.26V15.28H14.76ZM14.76 0.399998V-0.100002H14.26V0.399998H14.76ZM19.08 0.399998H19.58V-0.100002H19.08V0.399998ZM19.08 34V34.5H19.58V34H19.08ZM14.76 34H14.26V34.5H14.76V34ZM14.76 18.64H15.26V18.14H14.76V18.64ZM4.68 18.64V18.14H4.18V18.64H4.68ZM4.68 34V34.5H5.18V34H4.68ZM0.86 34V0.399998H-0.14V34H0.86ZM0.36 0.899998H4.68V-0.100002H0.36V0.899998ZM4.18 0.399998V15.28H5.18V0.399998H4.18ZM4.68 15.78H14.76V14.78H4.68V15.78ZM15.26 15.28V0.399998H14.26V15.28H15.26ZM14.76 0.899998H19.08V-0.100002H14.76V0.899998ZM18.58 0.399998V34H19.58V0.399998H18.58ZM19.08 33.5H14.76V34.5H19.08V33.5ZM15.26 34V18.64H14.26V34H15.26ZM14.76 18.14H4.68V19.14H14.76V18.14ZM4.18 18.64V34H5.18V18.64H4.18ZM4.68 33.5H0.36V34.5H4.68V33.5ZM28.0211 33.856L27.8379 34.3212L27.8426 34.323L28.0211 33.856ZM25.5251 31.6L25.0857 31.8386L25.0887 31.8439L25.5251 31.6ZM25.5251 22.192L25.9585 22.4415L25.9616 22.4359L25.5251 22.192ZM28.0211 19.984L28.192 20.454L28.1997 20.451L28.0211 19.984ZM34.2131 19.504L34.1579 20.0009L34.1599 20.0012L34.2131 19.504ZM36.6131 19.84L36.5237 20.3319L37.1131 20.4391V19.84H36.6131ZM35.2211 13.408L34.9211 13.8081L34.9279 13.813L35.2211 13.408ZM26.5331 12.4H26.0331V12.9H26.5331V12.4ZM26.5331 10.48L26.3689 10.0078L26.0331 10.1245V10.48H26.5331ZM29.2211 9.808L29.1342 9.3156L29.1317 9.31606L29.2211 9.808ZM37.0931 10.192L36.9279 10.664L36.9386 10.6675L37.0931 10.192ZM39.9731 12.592L39.5332 12.8298L39.536 12.8348L39.9731 12.592ZM40.9331 34V34.5H41.4331V34H40.9331ZM37.3331 34L36.8399 34.0822L36.9096 34.5H37.3331V34ZM37.0931 32.56L37.5863 32.4778L37.5167 32.06H37.0931V32.56ZM36.8531 32.56V32.06H36.646L36.4996 32.2064L36.8531 32.56ZM34.5971 34L34.7653 34.4709L34.7727 34.4682L34.78 34.4654L34.5971 34ZM35.1251 31.312L35.2688 31.7909L35.2796 31.7877L35.2903 31.7839L35.1251 31.312ZM36.6131 30.64L36.8816 31.0618L37.1131 30.9145V30.64H36.6131ZM36.6131 22.24H37.1131V21.74H36.6131V22.24ZM31.0451 22.624L30.8671 22.1567L30.8594 22.1598L31.0451 22.624ZM29.5091 24.016L29.938 24.2733L29.9432 24.2641L29.5091 24.016ZM29.5091 29.776L29.0701 30.0155L29.075 30.0241L29.5091 29.776ZM31.0451 31.216L30.8399 31.672L30.8534 31.678L30.8671 31.6832L31.0451 31.216ZM31.8131 33.98C30.4202 33.98 29.219 33.7787 28.1997 33.389L27.8426 34.323C28.9993 34.7653 30.326 34.98 31.8131 34.98V33.98ZM28.2044 33.3908C27.2666 33.0213 26.5192 32.3539 25.9616 31.3561L25.0887 31.8439C25.7471 33.0221 26.6637 33.8587 27.8379 34.3212L28.2044 33.3908ZM25.9646 31.3615C25.4139 30.3471 25.1131 28.8436 25.1131 26.8H24.1131C24.1131 28.9164 24.4204 30.6129 25.0857 31.8385L25.9646 31.3615ZM25.1131 26.8C25.1131 24.8206 25.414 23.3871 25.9584 22.4415L25.0918 21.9425C24.4203 23.1089 24.1131 24.7474 24.1131 26.8H25.1131ZM25.9616 22.4359C26.5179 21.4404 27.2613 20.7923 28.192 20.4539L27.8503 19.5141C26.6689 19.9437 25.7483 20.7676 25.0887 21.9481L25.9616 22.4359ZM28.1997 20.451C29.219 20.0613 30.4202 19.86 31.8131 19.86V18.86C30.326 18.86 28.9993 19.0747 27.8426 19.517L28.1997 20.451ZM31.8131 19.86C32.5277 19.86 33.3091 19.9066 34.1579 20.0009L34.2683 19.0071C33.3892 18.9094 32.5705 18.86 31.8131 18.86V19.86ZM34.1599 20.0012C35.0467 20.0962 35.8343 20.2066 36.5237 20.3319L36.7026 19.3481C35.984 19.2174 35.1716 19.1038 34.2664 19.0068L34.1599 20.0012ZM37.1131 19.84V17.68H36.1131V19.84H37.1131ZM37.1131 17.68C37.1131 15.4788 36.6524 13.8271 35.5144 13.003L34.9279 13.813C35.6458 14.3329 36.1131 15.5292 36.1131 17.68H37.1131ZM35.5211 13.008C34.5042 12.2453 33.0846 11.9 31.3331 11.9V12.9C32.9736 12.9 34.146 13.2267 34.9211 13.808L35.5211 13.008ZM31.3331 11.9H26.5331V12.9H31.3331V11.9ZM27.0331 12.4V10.48H26.0331V12.4H27.0331ZM26.6974 10.9522C27.4018 10.7072 28.2712 10.4889 29.3106 10.2999L29.1317 9.31606C28.059 9.51109 27.1364 9.74078 26.3689 10.0078L26.6974 10.9522ZM29.308 10.3004C30.3715 10.1127 31.3662 10.02 32.2931 10.02V9.02C31.3 9.02 30.2467 9.11928 29.1342 9.31561L29.308 10.3004ZM32.2931 10.02C34.1784 10.02 35.7181 10.2405 36.9279 10.6639L37.2583 9.72007C35.9082 9.24752 34.2479 9.02 32.2931 9.02V10.02ZM36.9386 10.6675C38.0965 11.0438 38.9543 11.7587 39.5333 12.8298L40.413 12.3542C39.7119 11.0573 38.6498 10.1722 37.2477 9.71648L36.9386 10.6675ZM39.536 12.8348C40.1153 13.8774 40.4331 15.4728 40.4331 17.68H41.4331C41.4331 15.4072 41.111 13.6106 40.4102 12.3492L39.536 12.8348ZM40.4331 17.68V34H41.4331V17.68H40.4331ZM40.9331 33.5H37.3331V34.5H40.9331V33.5ZM37.8263 33.9178L37.5863 32.4778L36.5999 32.6422L36.8399 34.0822L37.8263 33.9178ZM37.0931 32.06H36.8531V33.06H37.0931V32.06ZM36.4996 32.2064C35.9457 32.7603 35.254 33.2048 34.4143 33.5346L34.78 34.4654C35.7323 34.0912 36.5446 33.5757 37.2067 32.9136L36.4996 32.2064ZM34.429 33.5291C33.5874 33.8297 32.7163 33.98 31.8131 33.98V34.98C32.8299 34.98 33.8148 34.8103 34.7653 34.4709L34.429 33.5291ZM33.2531 32.1C33.9143 32.1 34.5868 31.9955 35.2688 31.7909L34.9814 30.8331C34.3835 31.0125 33.8079 31.1 33.2531 31.1V32.1ZM35.2903 31.7839C35.947 31.5541 36.4835 31.3152 36.8816 31.0618L36.3447 30.2182C36.0388 30.4128 35.5832 30.6219 34.9599 30.8401L35.2903 31.7839ZM37.1131 30.64V22.24H36.1131V30.64H37.1131ZM36.6131 21.74H33.2531V22.74H36.6131V21.74ZM33.2531 21.74C32.3991 21.74 31.602 21.8768 30.8671 22.1568L31.2231 23.0912C31.8322 22.8592 32.5071 22.74 33.2531 22.74V21.74ZM30.8594 22.1598C30.1017 22.4628 29.5078 23.0106 29.075 23.7679L29.9432 24.2641C30.2785 23.6774 30.7085 23.2972 31.2308 23.0882L30.8594 22.1598ZM29.0804 23.7588C28.629 24.511 28.4331 25.5446 28.4331 26.8H29.4331C29.4331 25.6234 29.6212 24.801 29.9379 24.2732L29.0804 23.7588ZM28.4331 26.8C28.4331 28.1188 28.6291 29.2067 29.0702 30.0154L29.9481 29.5366C29.6212 28.9373 29.4331 28.0412 29.4331 26.8H28.4331ZM29.075 30.0241C29.5058 30.7779 30.0937 31.3361 30.8399 31.672L31.2503 30.76C30.7166 30.5199 30.2805 30.1181 29.9432 29.5279L29.075 30.0241ZM30.8671 31.6832C31.602 31.9632 32.3991 32.1 33.2531 32.1V31.1C32.5071 31.1 31.8322 30.9808 31.2231 30.7488L30.8671 31.6832ZM47.1825 43.6H46.6825V44.1H47.1825V43.6ZM47.1825 10V9.5H46.6825V10H47.1825ZM50.7825 10L51.2757 9.9178L51.2061 9.5H50.7825V10ZM51.0225 11.44L50.5293 11.5222L50.5989 11.94H51.0225V11.44ZM51.2625 11.44V11.94H51.4696L51.6161 11.7936L51.2625 11.44ZM53.5185 10.048L53.6867 10.5189L53.694 10.5162L53.7013 10.5134L53.5185 10.048ZM60.5745 10.672L60.2971 11.088L60.3038 11.0924L60.3105 11.0966L60.5745 10.672ZM63.2625 14.512L62.788 14.6701L62.7916 14.6802L63.2625 14.512ZM63.2625 29.536L62.7907 29.3704L62.789 29.3754L63.2625 29.536ZM60.5745 33.376L60.8437 33.7974L60.8466 33.7955L60.5745 33.376ZM53.7105 34.144L53.5649 34.6224L53.5705 34.624L53.7105 34.144ZM51.5025 33.28L51.7182 32.8289L51.0025 32.4866V33.28H51.5025ZM51.5025 43.6V44.1H52.0025V43.6H51.5025ZM57.5505 30.832L57.836 31.2425L57.8395 31.24L57.5505 30.832ZM59.2785 27.952L58.7989 27.8103L58.7969 27.8176L59.2785 27.952ZM59.2785 16.096L58.7959 16.2276L58.7999 16.2407L59.2785 16.096ZM57.5505 13.216L57.2533 13.6181L57.2631 13.6253L57.2732 13.632L57.5505 13.216ZM52.9905 12.688L52.8468 12.2091H52.8468L52.9905 12.688ZM51.5025 13.36L51.2084 12.9556L51.0025 13.1054V13.36H51.5025ZM51.5025 30.64H51.0025V30.9145L51.2341 31.0618L51.5025 30.64ZM52.9905 31.312L52.8253 31.7839L52.836 31.7877L52.8468 31.7909L52.9905 31.312ZM47.6825 43.6V10H46.6825V43.6H47.6825ZM47.1825 10.5H50.7825V9.5H47.1825V10.5ZM50.2893 10.0822L50.5293 11.5222L51.5157 11.3578L51.2757 9.9178L50.2893 10.0822ZM51.0225 11.94H51.2625V10.94H51.0225V11.94ZM51.6161 11.7936C52.1664 11.2433 52.8529 10.8167 53.6867 10.5189L53.3503 9.57713C52.3921 9.91935 51.5746 10.4207 50.9089 11.0864L51.6161 11.7936ZM53.7013 10.5134C54.5393 10.1842 55.4053 10.02 56.3025 10.02V9.02C55.2798 9.02 54.2897 9.20781 53.3357 9.58262L53.7013 10.5134ZM56.3025 10.02C57.9222 10.02 59.2441 10.386 60.2971 11.088L60.8519 10.256C59.6009 9.42199 58.0748 9.02 56.3025 9.02V10.02ZM60.3105 11.0966C61.3636 11.7513 62.2031 12.9151 62.7882 14.6701L63.7368 14.3539C63.1059 12.4609 62.1534 11.0647 60.8385 10.2474L60.3105 11.0966ZM62.7916 14.6802C63.4036 16.3937 63.7225 18.8238 63.7225 22H64.7225C64.7225 18.7762 64.4014 16.2143 63.7334 14.3438L62.7916 14.6802ZM63.7225 22C63.7225 25.1755 63.4038 27.6232 62.7907 29.3705L63.7343 29.7015C64.4012 27.8008 64.7225 25.2245 64.7225 22H63.7225ZM62.789 29.3754C62.2049 31.0971 61.3644 32.2677 60.3024 32.9565L60.8466 33.7955C62.1526 32.9483 63.1041 31.5589 63.736 29.6966L62.789 29.3754ZM60.3053 32.9547C59.2511 33.6282 57.9261 33.98 56.3025 33.98V34.98C58.0709 34.98 59.5939 34.5958 60.8437 33.7973L60.3053 32.9547ZM56.3025 33.98C55.3807 33.98 54.565 33.8724 53.8505 33.664L53.5705 34.624C54.392 34.8636 55.3043 34.98 56.3025 34.98V33.98ZM53.8561 33.6657C53.1455 33.4494 52.4329 33.1707 51.7182 32.8289L51.2868 33.7311C52.0441 34.0933 52.8035 34.3906 53.5649 34.6223L53.8561 33.6657ZM51.0025 33.28V43.6H52.0025V33.28H51.0025ZM51.5025 43.1H47.1825V44.1H51.5025V43.1ZM54.8625 32.1C56.002 32.1 57.0021 31.8225 57.836 31.2425L57.265 30.4215C56.6269 30.8655 55.835 31.1 54.8625 31.1V32.1ZM57.8395 31.24C58.739 30.6029 59.3605 29.5183 59.7601 28.0864L58.7969 27.8176C58.4285 29.1377 57.898 29.9731 57.2615 30.424L57.8395 31.24ZM59.758 28.0937C60.1941 26.6178 60.4025 24.578 60.4025 22H59.4025C59.4025 24.542 59.1949 26.4702 58.799 27.8103L59.758 28.0937ZM60.4025 22C60.4025 19.4229 60.1942 17.3972 59.7571 15.9513L58.7999 16.2407C59.1948 17.5468 59.4025 19.4571 59.4025 22H60.4025ZM59.7609 15.9644C59.3626 14.5042 58.7405 13.4084 57.8279 12.8L57.2732 13.632C57.8965 14.0476 58.4264 14.8718 58.7961 16.2276L59.7609 15.9644ZM57.8477 12.8139C57.0129 12.1969 56.0084 11.9 54.8625 11.9V12.9C55.8286 12.9 56.6161 13.1471 57.2533 13.6181L57.8477 12.8139ZM54.8625 11.9C54.2013 11.9 53.5289 12.0045 52.8468 12.2091L53.1342 13.1669C53.7321 12.9875 54.3077 12.9 54.8625 12.9V11.9ZM52.8468 12.2091C52.1786 12.4096 51.6236 12.6537 51.2084 12.9556L51.7966 13.7644C52.0854 13.5543 52.5224 13.3504 53.1342 13.1669L52.8468 12.2091ZM51.0025 13.36V30.64H52.0025V13.36H51.0025ZM51.2341 31.0618C51.6322 31.3152 52.1686 31.5541 52.8253 31.7839L53.1557 30.8401C52.5324 30.6219 52.0768 30.4128 51.7709 30.2182L51.2341 31.0618ZM52.8468 31.7909C53.5289 31.9955 54.2013 32.1 54.8625 32.1V31.1C54.3077 31.1 53.7321 31.0125 53.1342 30.8331L52.8468 31.7909ZM71.559 43.744L71.6939 43.2623L71.6803 43.2589L71.559 43.744ZM69.495 43.12H68.995V43.4686L69.3222 43.5892L69.495 43.12ZM69.495 41.2V40.7H68.995V41.2H69.495ZM74.871 40.672L74.6102 40.2452L74.5994 40.2522L74.871 40.672ZM76.311 38.656L75.8522 38.4572L75.8483 38.4663L75.8447 38.4755L76.311 38.656ZM77.415 34.48L77.9075 34.5664L78.0104 33.98H77.415V34.48ZM73.671 32.944L74.0415 32.6082L73.671 32.944ZM71.655 28.72L71.1678 28.8324L71.168 28.8331L71.655 28.72ZM67.335 10V9.5H66.7065L66.8478 10.1124L67.335 10ZM71.655 10L72.1422 9.88757L72.0528 9.5H71.655V10ZM75.975 28.72L75.4878 28.8324L75.4881 28.8336L75.975 28.72ZM76.839 30.784L76.4573 31.107L76.4637 31.1145L76.4704 31.1219L76.839 30.784ZM77.991 31.36V31.86H78.4064L78.4825 31.4517L77.991 31.36ZM81.975 10V9.5H81.5596L81.4835 9.90832L81.975 10ZM86.295 10L86.7865 10.0916L86.8967 9.5H86.295V10ZM81.735 34.48L81.2434 34.3884L81.243 34.391L81.735 34.48ZM78.951 41.776L78.5662 41.4567L78.5629 41.4607L78.951 41.776ZM73.815 43.58C73.1639 43.58 72.4576 43.4764 71.6938 43.2625L71.4242 44.2255C72.2604 44.4596 73.0581 44.58 73.815 44.58V43.58ZM71.6803 43.2589C70.9261 43.0704 70.2557 42.8674 69.6679 42.6508L69.3222 43.5892C69.9503 43.8206 70.6559 44.0336 71.4377 44.2291L71.6803 43.2589ZM69.995 43.12V41.2H68.995V43.12H69.995ZM69.495 41.7H72.855V40.7H69.495V41.7ZM72.855 41.7C73.7287 41.7 74.5006 41.5072 75.1426 41.0918L74.5994 40.2522C74.1534 40.5408 73.5813 40.7 72.855 40.7V41.7ZM75.1317 41.0986C75.8417 40.6648 76.375 39.8758 76.7773 38.8365L75.8447 38.4755C75.479 39.4202 75.0523 39.9752 74.6103 40.2454L75.1317 41.0986ZM76.7698 38.8548C77.2089 37.8414 77.585 36.4043 77.9075 34.5664L76.9225 34.3936C76.605 36.2037 76.2451 37.5506 75.8522 38.4572L76.7698 38.8548ZM77.415 33.98C75.9671 33.98 74.8615 33.513 74.0415 32.6082L73.3005 33.2798C74.3365 34.423 75.7269 34.98 77.415 34.98V33.98ZM74.0415 32.6082C73.1865 31.6648 72.5449 30.3425 72.1421 28.6069L71.168 28.8331C71.5971 30.6815 72.2995 32.1752 73.3005 33.2798L74.0415 32.6082ZM72.1422 28.6076L67.8222 9.88757L66.8478 10.1124L71.1678 28.8324L72.1422 28.6076ZM67.335 10.5H71.655V9.5H67.335V10.5ZM71.1678 10.1124L75.4878 28.8324L76.4622 28.6076L72.1422 9.88757L71.1678 10.1124ZM75.4881 28.8336C75.7177 29.8179 76.0279 30.5995 76.4573 31.107L77.2207 30.461C76.9461 30.1365 76.6803 29.5421 76.4619 28.6064L75.4881 28.8336ZM76.4704 31.1219C76.8916 31.5813 77.401 31.86 77.991 31.86V30.86C77.749 30.86 77.4904 30.7547 77.2076 30.4461L76.4704 31.1219ZM78.4825 31.4517L82.4665 10.0917L81.4835 9.90832L77.4995 31.2683L78.4825 31.4517ZM81.975 10.5H86.295V9.5H81.975V10.5ZM85.8035 9.90844L81.2435 34.3884L82.2265 34.5716L86.7865 10.0916L85.8035 9.90844ZM81.243 34.391C80.6404 37.7211 79.7322 40.0516 78.5662 41.4567L79.3358 42.0953C80.6658 40.4924 81.6136 37.9589 82.227 34.569L81.243 34.391ZM78.5629 41.4607C77.4201 42.8672 75.8575 43.58 73.815 43.58V44.58C76.1245 44.58 77.9859 43.7568 79.3391 42.0913L78.5629 41.4607ZM90.87 34H90.37V34.5H90.87V34ZM90.87 10V9.5H90.37V10H90.87ZM95.19 10H95.69V9.5H95.19V10ZM95.19 30.88H94.69V31.38H95.19V30.88ZM101.67 30.88V31.38H102.17V30.88H101.67ZM101.67 10V9.5H101.17V10H101.67ZM105.99 10H106.49V9.5H105.99V10ZM105.99 30.88H105.49V31.38H105.99V30.88ZM112.47 30.88V31.38H112.97V30.88H112.47ZM112.47 10V9.5H111.97V10H112.47ZM116.79 10H117.29V9.5H116.79V10ZM116.79 34V34.5H117.29V34H116.79ZM91.37 34V10H90.37V34H91.37ZM90.87 10.5H95.19V9.5H90.87V10.5ZM94.69 10V30.88H95.69V10H94.69ZM95.19 31.38H101.67V30.38H95.19V31.38ZM102.17 30.88V10H101.17V30.88H102.17ZM101.67 10.5H105.99V9.5H101.67V10.5ZM105.49 10V30.88H106.49V10H105.49ZM105.99 31.38H112.47V30.38H105.99V31.38ZM112.97 30.88V10H111.97V30.88H112.97ZM112.47 10.5H116.79V9.5H112.47V10.5ZM116.29 10V34H117.29V10H116.29ZM116.79 33.5H90.87V34.5H116.79V33.5ZM126.338 33.376L126.107 33.8194L126.115 33.8232L126.338 33.376ZM123.074 29.536L122.605 29.7089L122.609 29.7188L123.074 29.536ZM123.026 14.512L123.497 14.6802L123.498 14.6775L123.026 14.512ZM125.858 10.672L126.112 11.1028L126.12 11.0978L125.858 10.672ZM135.074 10.672L134.807 11.0947L134.814 11.0988L134.82 11.1027L135.074 10.672ZM137.906 14.512L137.434 14.6775L137.435 14.6802L137.906 14.512ZM138.866 23.44V23.94H139.366V23.44H138.866ZM126.386 23.44V22.94H125.886V23.44H126.386ZM127.922 29.872L127.544 30.1991L127.549 30.2045L127.554 30.2099L127.922 29.872ZM137.906 31.6H138.406V31.1H137.906V31.6ZM137.906 33.52L138.058 33.9965L138.406 33.8856V33.52H137.906ZM135.218 34.144L135.131 33.6516L135.124 33.6528L135.117 33.6543L135.218 34.144ZM126.386 20.56H125.886V21.06H126.386V20.56ZM134.546 20.56V21.06H135.046V20.56H134.546ZM133.97 15.472L133.493 15.6226V15.6226L133.97 15.472ZM132.482 12.928L132.16 13.3105L132.166 13.3155L132.172 13.3204L132.482 12.928ZM128.45 12.928L128.76 13.3204L128.763 13.3184L128.45 12.928ZM126.962 15.472L126.485 15.3214L126.962 15.472ZM132.146 33.98C129.791 33.98 127.94 33.6179 126.562 32.9288L126.115 33.8232C127.68 34.6061 129.702 34.98 132.146 34.98V33.98ZM126.57 32.9327C125.221 32.2292 124.207 31.0519 123.54 29.3532L122.609 29.7188C123.35 31.6041 124.511 32.9868 126.107 33.8193L126.57 32.9327ZM123.543 29.3631C122.901 27.6188 122.566 25.1741 122.566 22H121.566C121.566 25.2259 121.904 27.8052 122.605 29.7089L123.543 29.3631ZM122.566 22C122.566 18.8238 122.885 16.3937 123.497 14.6802L122.555 14.3438C121.887 16.2143 121.566 18.7762 121.566 22H122.566ZM123.498 14.6775C124.112 12.9274 124.995 11.7613 126.112 11.1027L125.604 10.2413C124.225 11.0547 123.22 12.4486 122.554 14.3465L123.498 14.6775ZM126.12 11.0978C127.272 10.3889 128.712 10.02 130.466 10.02V9.02C128.572 9.02 126.94 9.41908 125.596 10.2462L126.12 11.0978ZM130.466 10.02C132.255 10.02 133.691 10.3899 134.807 11.0947L135.341 10.2493C134.025 9.41806 132.39 9.02 130.466 9.02V10.02ZM134.82 11.1027C135.937 11.7613 136.82 12.9274 137.434 14.6775L138.378 14.3465C137.712 12.4486 136.707 11.0547 135.328 10.2413L134.82 11.1027ZM137.435 14.6802C138.047 16.3937 138.366 18.8238 138.366 22H139.366C139.366 18.7762 139.045 16.2143 138.377 14.3438L137.435 14.6802ZM138.366 22V23.44H139.366V22H138.366ZM138.866 22.94H126.386V23.94H138.866V22.94ZM125.886 23.44C125.886 26.5632 126.394 28.8694 127.544 30.1991L128.3 29.5449C127.402 28.5066 126.886 26.5248 126.886 23.44H125.886ZM127.554 30.2099C128.745 31.5096 130.641 32.1 133.106 32.1V31.1C130.772 31.1 129.211 30.5384 128.291 29.5341L127.554 30.2099ZM133.106 32.1H137.906V31.1H133.106V32.1ZM137.406 31.6V33.52H138.406V31.6H137.406ZM137.755 33.0435C137.079 33.2584 136.207 33.4618 135.131 33.6516L135.305 34.6364C136.405 34.4422 137.325 34.2296 138.058 33.9965L137.755 33.0435ZM135.117 33.6543C134.058 33.8725 133.068 33.98 132.146 33.98V34.98C133.145 34.98 134.203 34.8635 135.319 34.6337L135.117 33.6543ZM126.386 21.06H134.546V20.06H126.386V21.06ZM135.046 20.56C135.046 18.3636 134.854 16.6086 134.447 15.3214L133.493 15.6226C133.855 16.7674 134.046 18.4044 134.046 20.56H135.046ZM134.447 15.3214C134.051 14.0658 133.515 13.1061 132.792 12.5356L132.172 13.3204C132.666 13.7099 133.122 14.4462 133.493 15.6226L134.447 15.3214ZM132.804 12.5455C132.114 11.9642 131.33 11.66 130.466 11.66V12.66C131.075 12.66 131.635 12.8678 132.16 13.3105L132.804 12.5455ZM130.466 11.66C129.631 11.66 128.851 11.9668 128.138 12.5376L128.763 13.3184C129.329 12.8652 129.894 12.66 130.466 12.66V11.66ZM128.14 12.5356C127.418 13.1061 126.882 14.0658 126.485 15.3214L127.439 15.6226C127.811 14.4462 128.267 13.7099 128.76 13.3204L128.14 12.5356ZM126.485 15.3214C126.079 16.6086 125.886 18.3636 125.886 20.56H126.886C126.886 18.4044 127.078 16.7674 127.439 15.6226L126.485 15.3214ZM144.167 34H143.667V34.5H144.167V34ZM144.167 10V9.5H143.667V10H144.167ZM148.487 10H148.987V9.5H148.487V10ZM148.487 20.32H147.987V20.82H148.487V20.32ZM156.407 20.32V20.82H156.907V20.32H156.407ZM156.407 10V9.5H155.907V10H156.407ZM160.727 10H161.227V9.5H160.727V10ZM160.727 34V34.5H161.227V34H160.727ZM156.407 34H155.907V34.5H156.407V34ZM156.407 23.44H156.907V22.94H156.407V23.44ZM148.487 23.44V22.94H147.987V23.44H148.487ZM148.487 34V34.5H148.987V34H148.487ZM144.667 34V10H143.667V34H144.667ZM144.167 10.5H148.487V9.5H144.167V10.5ZM147.987 10V20.32H148.987V10H147.987ZM148.487 20.82H156.407V19.82H148.487V20.82ZM156.907 20.32V10H155.907V20.32H156.907ZM156.407 10.5H160.727V9.5H156.407V10.5ZM160.227 10V34H161.227V10H160.227ZM160.727 33.5H156.407V34.5H160.727V33.5ZM156.907 34V23.44H155.907V34H156.907ZM156.407 22.94H148.487V23.94H156.407V22.94ZM147.987 23.44V34H148.987V23.44H147.987ZM148.487 33.5H144.167V34.5H148.487V33.5ZM166.948 34H166.448V34.5H166.948V34ZM166.948 10V9.5H166.448V10H166.948ZM171.268 10H171.768V9.5H171.268V10ZM171.268 26.32H170.768V26.82H171.268V26.32ZM171.508 26.32V26.82H171.834L171.966 26.5218L171.508 26.32ZM178.708 10V9.5H178.382L178.251 9.79818L178.708 10ZM183.748 10H184.248V9.5H183.748V10ZM183.748 34V34.5H184.248V34H183.748ZM179.428 34H178.928V34.5H179.428V34ZM179.428 17.2H179.928V16.7H179.428V17.2ZM179.188 17.2V16.7H178.867L178.733 16.9921L179.188 17.2ZM171.508 34V34.5H171.829L171.963 34.2079L171.508 34ZM167.448 34V10H166.448V34H167.448ZM166.948 10.5H171.268V9.5H166.948V10.5ZM170.768 10V26.32H171.768V10H170.768ZM171.268 26.82H171.508V25.82H171.268V26.82ZM171.966 26.5218L179.166 10.2018L178.251 9.79818L171.051 26.1182L171.966 26.5218ZM178.708 10.5H183.748V9.5H178.708V10.5ZM183.248 10V34H184.248V10H183.248ZM183.748 33.5H179.428V34.5H183.748V33.5ZM179.928 34V17.2H178.928V34H179.928ZM179.428 16.7H179.188V17.7H179.428V16.7ZM178.733 16.9921L171.053 33.7921L171.963 34.2079L179.643 17.4079L178.733 16.9921ZM171.508 33.5H166.948V34.5H171.508V33.5ZM188.235 34.24L188.101 34.7218L188.235 34.24ZM187.371 34H186.871V34.38L187.237 34.4818L187.371 34ZM187.371 32.08V31.58H186.871V32.08H187.371ZM189.387 31.6L189.082 31.2037L189.074 31.2096L189.067 31.2159L189.387 31.6ZM190.251 30.4L189.78 30.2318L189.776 30.2419L190.251 30.4ZM191.451 27.04L191.921 27.2082L191.922 27.2064L191.451 27.04ZM192.747 24.736L193.088 25.1015L192.747 24.736ZM194.379 23.776L194.529 24.2528L194.879 24.1424V23.776H194.379ZM194.379 23.584H194.879V23.1134L194.409 23.0849L194.379 23.584ZM191.451 22.672L191.173 23.088L191.182 23.0939L191.191 23.0994L191.451 22.672ZM189.339 20.368L188.894 20.5973L188.899 20.606L188.904 20.6145L189.339 20.368ZM189.627 12.352L189.212 12.0718L189.211 12.0746L189.627 12.352ZM192.699 10.144L192.839 10.6239L192.846 10.6216L192.699 10.144ZM201.483 9.76L201.419 10.2561L201.432 10.2574L201.483 9.76ZM205.131 10.48H205.631V10.107L205.273 10.0007L205.131 10.48ZM205.131 34V34.5H205.631V34H205.131ZM200.811 34H200.311V34.5H200.811V34ZM200.811 24.64H201.311V24.14H200.811V24.64ZM196.011 27.04L195.543 26.8624L195.54 26.8718L196.011 27.04ZM194.811 30.4L195.279 30.5744L195.281 30.5682L194.811 30.4ZM192.987 33.472L192.641 33.1102L192.633 33.1184L192.987 33.472ZM200.811 21.52V22.02H201.311V21.52H200.811ZM200.811 12.4H201.311V11.9H200.811V12.4ZM194.091 13.36L194.393 13.7582L194.403 13.7504L194.091 13.36ZM194.091 20.608L193.778 20.9986L193.788 21.0061L194.091 20.608ZM190.011 33.98C189.447 33.98 188.9 33.9059 188.368 33.7582L188.101 34.7218C188.721 34.8941 189.358 34.98 190.011 34.98V33.98ZM188.368 33.7582C188.367 33.7579 188.366 33.7576 188.365 33.7573C188.364 33.757 188.363 33.7567 188.362 33.7564C188.361 33.7561 188.359 33.7557 188.358 33.7554C188.357 33.7551 188.356 33.7548 188.355 33.7545C188.354 33.7542 188.353 33.7539 188.352 33.7536C188.351 33.7533 188.349 33.753 188.348 33.7526C188.347 33.7523 188.346 33.752 188.345 33.7517C188.344 33.7514 188.343 33.7511 188.342 33.7508C188.341 33.7505 188.339 33.7502 188.338 33.7499C188.337 33.7496 188.336 33.7493 188.335 33.749C188.334 33.7486 188.333 33.7483 188.332 33.748C188.331 33.7477 188.33 33.7474 188.328 33.7471C188.327 33.7468 188.326 33.7465 188.325 33.7462C188.324 33.7459 188.323 33.7456 188.322 33.7453C188.321 33.745 188.32 33.7447 188.319 33.7444C188.317 33.7441 188.316 33.7438 188.315 33.7435C188.314 33.7432 188.313 33.7429 188.312 33.7426C188.311 33.7423 188.31 33.742 188.309 33.7417C188.308 33.7414 188.307 33.7411 188.306 33.7408C188.304 33.7405 188.303 33.7402 188.302 33.7399C188.301 33.7396 188.3 33.7393 188.299 33.739C188.298 33.7387 188.297 33.7384 188.296 33.7381C188.295 33.7378 188.294 33.7375 188.293 33.7372C188.291 33.7369 188.29 33.7366 188.289 33.7363C188.288 33.736 188.287 33.7357 188.286 33.7354C188.285 33.7351 188.284 33.7348 188.283 33.7345C188.282 33.7342 188.281 33.7339 188.28 33.7336C188.279 33.7333 188.278 33.733 188.277 33.7327C188.275 33.7324 188.274 33.7321 188.273 33.7318C188.272 33.7315 188.271 33.7312 188.27 33.7309C188.269 33.7306 188.268 33.7304 188.267 33.7301C188.266 33.7298 188.265 33.7295 188.264 33.7292C188.263 33.7289 188.262 33.7286 188.261 33.7283C188.26 33.728 188.259 33.7277 188.258 33.7274C188.256 33.7271 188.255 33.7268 188.254 33.7266C188.253 33.7263 188.252 33.726 188.251 33.7257C188.25 33.7254 188.249 33.7251 188.248 33.7248C188.247 33.7245 188.246 33.7242 188.245 33.7239C188.244 33.7236 188.243 33.7234 188.242 33.7231C188.241 33.7228 188.24 33.7225 188.239 33.7222C188.238 33.7219 188.237 33.7216 188.236 33.7213C188.235 33.7211 188.234 33.7208 188.233 33.7205C188.231 33.7202 188.23 33.7199 188.229 33.7196C188.228 33.7193 188.227 33.719 188.226 33.7188C188.225 33.7185 188.224 33.7182 188.223 33.7179C188.222 33.7176 188.221 33.7173 188.22 33.7171C188.219 33.7168 188.218 33.7165 188.217 33.7162C188.216 33.7159 188.215 33.7156 188.214 33.7154C188.213 33.7151 188.212 33.7148 188.211 33.7145C188.21 33.7142 188.209 33.7139 188.208 33.7137C188.207 33.7134 188.206 33.7131 188.205 33.7128C188.204 33.7125 188.203 33.7122 188.202 33.712C188.201 33.7117 188.2 33.7114 188.199 33.7111C188.198 33.7108 188.197 33.7106 188.196 33.7103C188.195 33.71 188.194 33.7097 188.193 33.7094C188.192 33.7092 188.191 33.7089 188.19 33.7086C188.189 33.7083 188.188 33.7081 188.187 33.7078C188.186 33.7075 188.185 33.7072 188.184 33.7069C188.183 33.7067 188.182 33.7064 188.181 33.7061C188.18 33.7058 188.179 33.7056 188.178 33.7053C188.177 33.705 188.176 33.7047 188.175 33.7045C188.174 33.7042 188.173 33.7039 188.172 33.7036C188.171 33.7034 188.17 33.7031 188.169 33.7028C188.168 33.7025 188.167 33.7023 188.166 33.702C188.165 33.7017 188.164 33.7014 188.163 33.7012C188.162 33.7009 188.161 33.7006 188.16 33.7004C188.159 33.7001 188.158 33.6998 188.157 33.6995C188.156 33.6993 188.155 33.699 188.154 33.6987C188.153 33.6985 188.152 33.6982 188.151 33.6979C188.15 33.6976 188.149 33.6974 188.148 33.6971C188.147 33.6968 188.146 33.6966 188.145 33.6963C188.144 33.696 188.143 33.6958 188.143 33.6955C188.142 33.6952 188.141 33.695 188.14 33.6947C188.139 33.6944 188.138 33.6941 188.137 33.6939C188.136 33.6936 188.135 33.6933 188.134 33.6931C188.133 33.6928 188.132 33.6925 188.131 33.6923C188.13 33.692 188.129 33.6917 188.128 33.6915C188.127 33.6912 188.126 33.691 188.125 33.6907C188.124 33.6904 188.123 33.6902 188.122 33.6899C188.121 33.6896 188.12 33.6894 188.12 33.6891C188.119 33.6888 188.118 33.6886 188.117 33.6883C188.116 33.688 188.115 33.6878 188.114 33.6875C188.113 33.6873 188.112 33.687 188.111 33.6867C188.11 33.6865 188.109 33.6862 188.108 33.686C188.107 33.6857 188.106 33.6854 188.105 33.6852C188.104 33.6849 188.104 33.6846 188.103 33.6844C188.102 33.6841 188.101 33.6839 188.1 33.6836C188.099 33.6833 188.098 33.6831 188.097 33.6828C188.096 33.6826 188.095 33.6823 188.094 33.6821C188.093 33.6818 188.092 33.6815 188.091 33.6813C188.09 33.681 188.09 33.6808 188.089 33.6805C188.088 33.6803 188.087 33.68 188.086 33.6797C188.085 33.6795 188.084 33.6792 188.083 33.679C188.082 33.6787 188.081 33.6785 188.08 33.6782C188.079 33.678 188.078 33.6777 188.078 33.6774C188.077 33.6772 188.076 33.6769 188.075 33.6767C188.074 33.6764 188.073 33.6762 188.072 33.6759C188.071 33.6757 188.07 33.6754 188.069 33.6752C188.068 33.6749 188.068 33.6747 188.067 33.6744C188.066 33.6741 188.065 33.6739 188.064 33.6736C188.063 33.6734 188.062 33.6731 188.061 33.6729C188.06 33.6726 188.059 33.6724 188.058 33.6721C188.058 33.6719 188.057 33.6716 188.056 33.6714C188.055 33.6711 188.054 33.6709 188.053 33.6706C188.052 33.6704 188.051 33.6701 188.05 33.6699C188.05 33.6696 188.049 33.6694 188.048 33.6692C188.047 33.6689 188.046 33.6687 188.045 33.6684C188.044 33.6682 188.043 33.6679 188.042 33.6677C188.042 33.6674 188.041 33.6672 188.04 33.6669C188.039 33.6667 188.038 33.6664 188.037 33.6662C188.036 33.6659 188.035 33.6657 188.034 33.6655C188.034 33.6652 188.033 33.665 188.032 33.6647C188.031 33.6645 188.03 33.6642 188.029 33.664C188.028 33.6637 188.027 33.6635 188.027 33.6633C188.026 33.663 188.025 33.6628 188.024 33.6625C188.023 33.6623 188.022 33.6621 188.021 33.6618C188.02 33.6616 188.02 33.6613 188.019 33.6611C188.018 33.6608 188.017 33.6606 188.016 33.6604C188.015 33.6601 188.014 33.6599 188.013 33.6596C188.013 33.6594 188.012 33.6592 188.011 33.6589C188.01 33.6587 188.009 33.6584 188.008 33.6582C188.007 33.658 188.007 33.6577 188.006 33.6575C188.005 33.6573 188.004 33.657 188.003 33.6568C188.002 33.6565 188.001 33.6563 188.001 33.6561C188 33.6558 187.999 33.6556 187.998 33.6554C187.997 33.6551 187.996 33.6549 187.996 33.6547C187.995 33.6544 187.994 33.6542 187.993 33.6539C187.992 33.6537 187.991 33.6535 187.99 33.6532C187.99 33.653 187.989 33.6528 187.988 33.6525C187.987 33.6523 187.986 33.6521 187.985 33.6518C187.985 33.6516 187.984 33.6514 187.983 33.6511C187.982 33.6509 187.981 33.6507 187.98 33.6504C187.98 33.6502 187.979 33.65 187.978 33.6497C187.977 33.6495 187.976 33.6493 187.975 33.6491C187.975 33.6488 187.974 33.6486 187.973 33.6484C187.972 33.6481 187.971 33.6479 187.97 33.6477C187.97 33.6474 187.969 33.6472 187.968 33.647C187.967 33.6468 187.966 33.6465 187.965 33.6463C187.965 33.6461 187.964 33.6458 187.963 33.6456C187.962 33.6454 187.961 33.6452 187.961 33.6449C187.96 33.6447 187.959 33.6445 187.958 33.6443C187.957 33.644 187.956 33.6438 187.956 33.6436C187.955 33.6434 187.954 33.6431 187.953 33.6429C187.952 33.6427 187.952 33.6424 187.951 33.6422C187.95 33.642 187.949 33.6418 187.948 33.6416C187.948 33.6413 187.947 33.6411 187.946 33.6409C187.945 33.6407 187.944 33.6404 187.944 33.6402C187.943 33.64 187.942 33.6398 187.941 33.6395C187.94 33.6393 187.94 33.6391 187.939 33.6389C187.938 33.6387 187.937 33.6384 187.936 33.6382C187.936 33.638 187.935 33.6378 187.934 33.6376C187.933 33.6373 187.932 33.6371 187.932 33.6369C187.931 33.6367 187.93 33.6365 187.929 33.6362C187.928 33.636 187.928 33.6358 187.927 33.6356C187.926 33.6354 187.925 33.6351 187.924 33.6349C187.924 33.6347 187.923 33.6345 187.922 33.6343C187.921 33.6341 187.921 33.6338 187.92 33.6336C187.919 33.6334 187.918 33.6332 187.917 33.633C187.917 33.6328 187.916 33.6325 187.915 33.6323C187.914 33.6321 187.914 33.6319 187.913 33.6317C187.912 33.6315 187.911 33.6312 187.911 33.631C187.91 33.6308 187.909 33.6306 187.908 33.6304C187.907 33.6302 187.907 33.63 187.906 33.6298C187.905 33.6295 187.904 33.6293 187.904 33.6291C187.903 33.6289 187.902 33.6287 187.901 33.6285C187.901 33.6283 187.9 33.6281 187.899 33.6278C187.898 33.6276 187.898 33.6274 187.897 33.6272C187.896 33.627 187.895 33.6268 187.894 33.6266C187.894 33.6264 187.893 33.6262 187.892 33.626C187.891 33.6257 187.891 33.6255 187.89 33.6253C187.889 33.6251 187.888 33.6249 187.888 33.6247C187.887 33.6245 187.886 33.6243 187.885 33.6241C187.885 33.6239 187.884 33.6237 187.883 33.6235C187.882 33.6232 187.882 33.623 187.881 33.6228C187.88 33.6226 187.88 33.6224 187.879 33.6222C187.878 33.622 187.877 33.6218 187.877 33.6216C187.876 33.6214 187.875 33.6212 187.874 33.621C187.874 33.6208 187.873 33.6206 187.872 33.6204C187.871 33.6202 187.871 33.62 187.87 33.6198C187.869 33.6196 187.868 33.6194 187.868 33.6192C187.867 33.6189 187.866 33.6187 187.866 33.6185C187.865 33.6183 187.864 33.6181 187.863 33.6179C187.863 33.6177 187.862 33.6175 187.861 33.6173C187.86 33.6171 187.86 33.6169 187.859 33.6167C187.858 33.6165 187.858 33.6163 187.857 33.6161C187.856 33.6159 187.855 33.6157 187.855 33.6155C187.854 33.6153 187.853 33.6151 187.853 33.6149C187.852 33.6147 187.851 33.6145 187.85 33.6143C187.85 33.6142 187.849 33.614 187.848 33.6138C187.848 33.6136 187.847 33.6134 187.846 33.6132C187.845 33.613 187.845 33.6128 187.844 33.6126C187.843 33.6124 187.843 33.6122 187.842 33.612C187.841 33.6118 187.841 33.6116 187.84 33.6114C187.839 33.6112 187.838 33.611 187.838 33.6108C187.837 33.6106 187.836 33.6104 187.836 33.6102C187.835 33.61 187.834 33.6099 187.834 33.6097C187.833 33.6095 187.832 33.6093 187.831 33.6091C187.831 33.6089 187.83 33.6087 187.829 33.6085C187.829 33.6083 187.828 33.6081 187.827 33.6079C187.827 33.6077 187.826 33.6076 187.825 33.6074C187.825 33.6072 187.824 33.607 187.823 33.6068C187.823 33.6066 187.822 33.6064 187.821 33.6062C187.82 33.606 187.82 33.6058 187.819 33.6057C187.818 33.6055 187.818 33.6053 187.817 33.6051C187.816 33.6049 187.816 33.6047 187.815 33.6045C187.814 33.6043 187.814 33.6042 187.813 33.604C187.812 33.6038 187.812 33.6036 187.811 33.6034C187.81 33.6032 187.81 33.603 187.809 33.6029C187.808 33.6027 187.808 33.6025 187.807 33.6023C187.806 33.6021 187.806 33.6019 187.805 33.6017C187.804 33.6016 187.804 33.6014 187.803 33.6012C187.802 33.601 187.802 33.6008 187.801 33.6006C187.8 33.6005 187.8 33.6003 187.799 33.6001C187.798 33.5999 187.798 33.5997 187.797 33.5995C187.796 33.5994 187.796 33.5992 187.795 33.599C187.795 33.5988 187.794 33.5986 187.793 33.5985C187.793 33.5983 187.792 33.5981 187.791 33.5979C187.791 33.5977 187.79 33.5976 187.789 33.5974C187.789 33.5972 187.788 33.597 187.787 33.5968C187.787 33.5967 187.786 33.5965 187.785 33.5963C187.785 33.5961 187.784 33.5959 187.784 33.5958C187.783 33.5956 187.782 33.5954 187.782 33.5952C187.781 33.5951 187.78 33.5949 187.78 33.5947C187.779 33.5945 187.778 33.5944 187.778 33.5942C187.777 33.594 187.777 33.5938 187.776 33.5937C187.775 33.5935 187.775 33.5933 187.774 33.5931C187.773 33.593 187.773 33.5928 187.772 33.5926C187.772 33.5924 187.771 33.5923 187.77 33.5921C187.77 33.5919 187.769 33.5917 187.768 33.5916C187.768 33.5914 187.767 33.5912 187.767 33.591C187.766 33.5909 187.765 33.5907 187.765 33.5905C187.764 33.5904 187.763 33.5902 187.763 33.59C187.762 33.5898 187.762 33.5897 187.761 33.5895C187.76 33.5893 187.76 33.5892 187.759 33.589C187.759 33.5888 187.758 33.5887 187.757 33.5885C187.757 33.5883 187.756 33.5882 187.756 33.588C187.755 33.5878 187.754 33.5876 187.754 33.5875C187.753 33.5873 187.752 33.5871 187.752 33.587C187.751 33.5868 187.751 33.5866 187.75 33.5865C187.749 33.5863 187.749 33.5861 187.748 33.586C187.748 33.5858 187.747 33.5856 187.747 33.5855C187.746 33.5853 187.745 33.5851 187.745 33.585C187.744 33.5848 187.744 33.5847 187.743 33.5845C187.742 33.5843 187.742 33.5842 187.741 33.584C187.741 33.5838 187.74 33.5837 187.739 33.5835C187.739 33.5833 187.738 33.5832 187.738 33.583C187.737 33.5829 187.736 33.5827 187.736 33.5825C187.735 33.5824 187.735 33.5822 187.734 33.5821C187.734 33.5819 187.733 33.5817 187.732 33.5816C187.732 33.5814 187.731 33.5812 187.731 33.5811C187.73 33.5809 187.73 33.5808 187.729 33.5806C187.728 33.5804 187.728 33.5803 187.727 33.5801C187.727 33.58 187.726 33.5798 187.726 33.5797C187.725 33.5795 187.724 33.5793 187.724 33.5792C187.723 33.579 187.723 33.5789 187.722 33.5787C187.722 33.5786 187.721 33.5784 187.72 33.5782C187.72 33.5781 187.719 33.5779 187.719 33.5778C187.718 33.5776 187.718 33.5775 187.717 33.5773C187.717 33.5772 187.716 33.577 187.715 33.5768C187.715 33.5767 187.714 33.5765 187.714 33.5764C187.713 33.5762 187.713 33.5761 187.712 33.5759C187.712 33.5758 187.711 33.5756 187.71 33.5755C187.71 33.5753 187.709 33.5752 187.709 33.575C187.708 33.5749 187.708 33.5747 187.707 33.5746C187.707 33.5744 187.706 33.5742 187.706 33.5741C187.705 33.5739 187.704 33.5738 187.704 33.5736C187.703 33.5735 187.703 33.5733 187.702 33.5732C187.702 33.573 187.701 33.5729 187.701 33.5727C187.7 33.5726 187.7 33.5724 187.699 33.5723C187.699 33.5722 187.698 33.572 187.697 33.5719C187.697 33.5717 187.696 33.5716 187.696 33.5714C187.695 33.5713 187.695 33.5711 187.694 33.571C187.694 33.5708 187.693 33.5707 187.693 33.5705C187.692 33.5704 187.692 33.5702 187.691 33.5701C187.691 33.57 187.69 33.5698 187.69 33.5697C187.689 33.5695 187.689 33.5694 187.688 33.5692C187.688 33.5691 187.687 33.5689 187.686 33.5688C187.686 33.5687 187.685 33.5685 187.685 33.5684C187.684 33.5682 187.684 33.5681 187.683 33.5679C187.683 33.5678 187.682 33.5677 187.682 33.5675C187.681 33.5674 187.681 33.5672 187.68 33.5671C187.68 33.567 187.679 33.5668 187.679 33.5667C187.678 33.5665 187.678 33.5664 187.677 33.5663C187.677 33.5661 187.676 33.566 187.676 33.5658C187.675 33.5657 187.675 33.5656 187.674 33.5654C187.674 33.5653 187.673 33.5651 187.673 33.565C187.672 33.5649 187.672 33.5647 187.671 33.5646C187.671 33.5645 187.67 33.5643 187.67 33.5642C187.669 33.564 187.669 33.5639 187.668 33.5638C187.668 33.5636 187.667 33.5635 187.667 33.5634C187.666 33.5632 187.666 33.5631 187.665 33.563C187.665 33.5628 187.664 33.5627 187.664 33.5626C187.663 33.5624 187.663 33.5623 187.663 33.5621C187.662 33.562 187.662 33.5619 187.661 33.5618C187.661 33.5616 187.66 33.5615 187.66 33.5614C187.659 33.5612 187.659 33.5611 187.658 33.561C187.658 33.5608 187.657 33.5607 187.657 33.5606C187.656 33.5604 187.656 33.5603 187.655 33.5602C187.655 33.56 187.654 33.5599 187.654 33.5598C187.654 33.5596 187.653 33.5595 187.653 33.5594C187.652 33.5593 187.652 33.5591 187.651 33.559C187.651 33.5589 187.65 33.5587 187.65 33.5586C187.649 33.5585 187.649 33.5584 187.648 33.5582C187.648 33.5581 187.647 33.558 187.647 33.5578C187.647 33.5577 187.646 33.5576 187.646 33.5575C187.645 33.5573 187.645 33.5572 187.644 33.5571C187.644 33.557 187.643 33.5568 187.643 33.5567C187.643 33.5566 187.642 33.5565 187.642 33.5563C187.641 33.5562 187.641 33.5561 187.64 33.556C187.64 33.5558 187.639 33.5557 187.639 33.5556C187.638 33.5555 187.638 33.5554 187.638 33.5552C187.637 33.5551 187.637 33.555 187.636 33.5549C187.636 33.5547 187.635 33.5546 187.635 33.5545C187.635 33.5544 187.634 33.5543 187.634 33.5541C187.633 33.554 187.633 33.5539 187.632 33.5538C187.632 33.5536 187.632 33.5535 187.631 33.5534C187.631 33.5533 187.63 33.5532 187.63 33.5531C187.629 33.5529 187.629 33.5528 187.628 33.5527C187.628 33.5526 187.628 33.5525 187.627 33.5523C187.627 33.5522 187.626 33.5521 187.626 33.552C187.626 33.5519 187.625 33.5518 187.625 33.5516C187.624 33.5515 187.624 33.5514 187.623 33.5513C187.623 33.5512 187.623 33.5511 187.622 33.5509C187.622 33.5508 187.621 33.5507 187.621 33.5506C187.621 33.5505 187.62 33.5504 187.62 33.5503C187.619 33.5501 187.619 33.55 187.618 33.5499C187.618 33.5498 187.618 33.5497 187.617 33.5496C187.617 33.5495 187.616 33.5494 187.616 33.5492C187.616 33.5491 187.615 33.549 187.615 33.5489C187.614 33.5488 187.614 33.5487 187.614 33.5486C187.613 33.5485 187.613 33.5483 187.612 33.5482C187.612 33.5481 187.612 33.548 187.611 33.5479C187.611 33.5478 187.61 33.5477 187.61 33.5476C187.61 33.5475 187.609 33.5474 187.609 33.5472C187.608 33.5471 187.608 33.547 187.608 33.5469C187.607 33.5468 187.607 33.5467 187.607 33.5466C187.606 33.5465 187.606 33.5464 187.605 33.5463C187.605 33.5462 187.605 33.5461 187.604 33.546C187.604 33.5459 187.603 33.5457 187.603 33.5456C187.603 33.5455 187.602 33.5454 187.602 33.5453C187.602 33.5452 187.601 33.5451 187.601 33.545C187.6 33.5449 187.6 33.5448 187.6 33.5447C187.599 33.5446 187.599 33.5445 187.599 33.5444C187.598 33.5443 187.598 33.5442 187.597 33.5441C187.597 33.544 187.597 33.5439 187.596 33.5438C187.596 33.5437 187.596 33.5436 187.595 33.5435C187.595 33.5434 187.595 33.5433 187.594 33.5432C187.594 33.5431 187.593 33.543 187.593 33.5429C187.593 33.5428 187.592 33.5427 187.592 33.5426C187.592 33.5425 187.591 33.5424 187.591 33.5423C187.591 33.5422 187.59 33.5421 187.59 33.542C187.59 33.5419 187.589 33.5418 187.589 33.5417C187.588 33.5416 187.588 33.5415 187.588 33.5414C187.587 33.5413 187.587 33.5412 187.587 33.5411C187.586 33.541 187.586 33.5409 187.586 33.5408C187.585 33.5407 187.585 33.5406 187.585 33.5405C187.584 33.5404 187.584 33.5403 187.584 33.5402C187.583 33.5401 187.583 33.54 187.583 33.54C187.582 33.5399 187.582 33.5398 187.582 33.5397C187.581 33.5396 187.581 33.5395 187.581 33.5394C187.58 33.5393 187.58 33.5392 187.58 33.5391C187.579 33.539 187.579 33.5389 187.579 33.5388C187.578 33.5387 187.578 33.5387 187.578 33.5386C187.577 33.5385 187.577 33.5384 187.577 33.5383C187.576 33.5382 187.576 33.5381 187.576 33.538C187.575 33.5379 187.575 33.5378 187.575 33.5378C187.574 33.5377 187.574 33.5376 187.574 33.5375C187.573 33.5374 187.573 33.5373 187.573 33.5372C187.572 33.5371 187.572 33.537 187.572 33.537C187.572 33.5369 187.571 33.5368 187.571 33.5367C187.571 33.5366 187.57 33.5365 187.57 33.5364C187.57 33.5364 187.569 33.5363 187.569 33.5362C187.569 33.5361 187.568 33.536 187.568 33.5359C187.568 33.5358 187.568 33.5358 187.567 33.5357C187.567 33.5356 187.567 33.5355 187.566 33.5354C187.566 33.5353 187.566 33.5353 187.565 33.5352C187.565 33.5351 187.565 33.535 187.565 33.5349C187.564 33.5348 187.564 33.5348 187.564 33.5347C187.563 33.5346 187.563 33.5345 187.563 33.5344C187.562 33.5344 187.562 33.5343 187.562 33.5342C187.562 33.5341 187.561 33.534 187.561 33.534C187.561 33.5339 187.56 33.5338 187.56 33.5337C187.56 33.5336 187.56 33.5336 187.559 33.5335C187.559 33.5334 187.559 33.5333 187.558 33.5332C187.558 33.5332 187.558 33.5331 187.558 33.533C187.557 33.5329 187.557 33.5329 187.557 33.5328C187.557 33.5327 187.556 33.5326 187.556 33.5325C187.556 33.5325 187.555 33.5324 187.555 33.5323C187.555 33.5322 187.555 33.5322 187.554 33.5321C187.554 33.532 187.554 33.5319 187.553 33.5319C187.553 33.5318 187.553 33.5317 187.553 33.5316C187.552 33.5316 187.552 33.5315 187.552 33.5314C187.552 33.5314 187.551 33.5313 187.551 33.5312C187.551 33.5311 187.551 33.5311 187.55 33.531C187.55 33.5309 187.55 33.5308 187.55 33.5308C187.549 33.5307 187.549 33.5306 187.549 33.5306C187.549 33.5305 187.548 33.5304 187.548 33.5303C187.548 33.5303 187.548 33.5302 187.547 33.5301C187.547 33.5301 187.547 33.53 187.547 33.5299C187.546 33.5299 187.546 33.5298 187.546 33.5297C187.546 33.5297 187.545 33.5296 187.545 33.5295C187.545 33.5295 187.545 33.5294 187.544 33.5293C187.544 33.5293 187.544 33.5292 187.544 33.5291C187.543 33.5291 187.543 33.529 187.543 33.5289C187.543 33.5289 187.542 33.5288 187.542 33.5287C187.542 33.5287 187.542 33.5286 187.541 33.5285C187.541 33.5285 187.541 33.5284 187.541 33.5283C187.541 33.5283 187.54 33.5282 187.54 33.5281C187.54 33.5281 187.54 33.528 187.539 33.528C187.539 33.5279 187.539 33.5278 187.539 33.5278C187.539 33.5277 187.538 33.5276 187.538 33.5276C187.538 33.5275 187.538 33.5275 187.537 33.5274C187.537 33.5273 187.537 33.5273 187.537 33.5272C187.537 33.5272 187.536 33.5271 187.536 33.527C187.536 33.527 187.536 33.5269 187.535 33.5269C187.535 33.5268 187.535 33.5267 187.535 33.5267C187.535 33.5266 187.534 33.5266 187.534 33.5265C187.534 33.5264 187.534 33.5264 187.534 33.5263C187.533 33.5263 187.533 33.5262 187.533 33.5262C187.533 33.5261 187.533 33.526 187.532 33.526C187.532 33.5259 187.532 33.5259 187.532 33.5258C187.532 33.5258 187.531 33.5257 187.531 33.5257C187.531 33.5256 187.531 33.5255 187.531 33.5255C187.53 33.5254 187.53 33.5254 187.53 33.5253C187.53 33.5253 187.53 33.5252 187.529 33.5252C187.529 33.5251 187.529 33.5251 187.529 33.525C187.529 33.525 187.528 33.5249 187.528 33.5249C187.528 33.5248 187.528 33.5248 187.528 33.5247C187.528 33.5247 187.527 33.5246 187.527 33.5245C187.527 33.5245 187.527 33.5244 187.527 33.5244C187.526 33.5243 187.526 33.5243 187.526 33.5242C187.526 33.5242 187.526 33.5242 187.526 33.5241C187.525 33.5241 187.525 33.524 187.525 33.524C187.525 33.5239 187.525 33.5239 187.525 33.5238C187.524 33.5238 187.524 33.5237 187.524 33.5237C187.524 33.5236 187.524 33.5236 187.523 33.5235C187.523 33.5235 187.523 33.5234 187.523 33.5234C187.523 33.5233 187.523 33.5233 187.522 33.5233C187.522 33.5232 187.522 33.5232 187.522 33.5231C187.522 33.5231 187.522 33.523 187.522 33.523C187.521 33.5229 187.521 33.5229 187.521 33.5229C187.521 33.5228 187.521 33.5228 187.521 33.5227C187.52 33.5227 187.52 33.5226 187.52 33.5226C187.52 33.5226 187.52 33.5225 187.52 33.5225C187.52 33.5224 187.519 33.5224 187.519 33.5224C187.519 33.5223 187.519 33.5223 187.519 33.5222C187.519 33.5222 187.519 33.5221 187.518 33.5221C187.518 33.5221 187.518 33.522 187.518 33.522C187.518 33.522 187.518 33.5219 187.518 33.5219C187.517 33.5218 187.517 33.5218 187.517 33.5218C187.517 33.5217 187.517 33.5217 187.517 33.5216C187.517 33.5216 187.516 33.5216 187.516 33.5215C187.516 33.5215 187.516 33.5215 187.516 33.5214C187.516 33.5214 187.516 33.5214 187.516 33.5213C187.515 33.5213 187.515 33.5213 187.515 33.5212C187.515 33.5212 187.515 33.5211 187.515 33.5211C187.515 33.5211 187.515 33.521 187.514 33.521C187.514 33.521 187.514 33.5209 187.514 33.5209C187.514 33.5209 187.514 33.5208 187.514 33.5208C187.514 33.5208 187.513 33.5207 187.513 33.5207C187.513 33.5207 187.513 33.5207 187.513 33.5206C187.513 33.5206 187.513 33.5206 187.513 33.5205C187.513 33.5205 187.512 33.5205 187.512 33.5204C187.512 33.5204 187.512 33.5204 187.512 33.5204C187.512 33.5203 187.512 33.5203 187.512 33.5203C187.512 33.5202 187.512 33.5202 187.511 33.5202C187.511 33.5201 187.511 33.5201 187.511 33.5201C187.511 33.5201 187.511 33.52 187.511 33.52C187.511 33.52 187.511 33.52 187.511 33.5199C187.51 33.5199 187.51 33.5199 187.51 33.5199C187.51 33.5198 187.51 33.5198 187.51 33.5198C187.51 33.5198 187.51 33.5197 187.51 33.5197C187.51 33.5197 187.51 33.5197 187.509 33.5196C187.509 33.5196 187.509 33.5196 187.509 33.5196C187.509 33.5195 187.509 33.5195 187.509 33.5195C187.509 33.5195 187.509 33.5195 187.509 33.5194C187.509 33.5194 187.509 33.5194 187.508 33.5194C187.508 33.5193 187.508 33.5193 187.508 33.5193C187.508 33.5193 187.508 33.5193 187.508 33.5192C187.508 33.5192 187.508 33.5192 187.508 33.5192C187.508 33.5192 187.508 33.5191 187.508 33.5191C187.508 33.5191 187.507 33.5191 187.507 33.5191C187.507 33.519 187.507 33.519 187.507 33.519C187.507 33.519 187.507 33.519 187.507 33.519C187.507 33.5189 187.507 33.5189 187.507 33.5189C187.507 33.5189 187.507 33.5189 187.507 33.5189C187.507 33.5188 187.507 33.5188 187.507 33.5188C187.506 33.5188 187.506 33.5188 187.506 33.5188C187.506 33.5188 187.506 33.5187 187.506 33.5187C187.506 33.5187 187.506 33.5187 187.506 33.5187C187.506 33.5187 187.506 33.5187 187.506 33.5186C187.506 33.5186 187.506 33.5186 187.506 33.5186C187.506 33.5186 187.506 33.5186 187.506 33.5186C187.506 33.5186 187.506 33.5185 187.506 33.5185C187.505 33.5185 187.505 33.5185 187.505 33.5185C187.505 33.5185 187.505 33.5185 187.505 33.5185C187.505 33.5185 187.505 33.5185 187.505 33.5184C187.505 33.5184 187.505 33.5184 187.505 33.5184C187.505 33.5184 187.505 33.5184 187.505 33.5184C187.505 33.5184 187.505 33.5184 187.505 33.5184C187.505 33.5184 187.505 33.5184 187.505 33.5184C187.505 33.5183 187.505 33.5183 187.505 33.5183C187.505 33.5183 187.505 33.5183 187.505 33.5183C187.505 33.5183 187.505 33.5183 187.505 33.5183C187.505 33.5183 187.505 33.5183 187.505 33.5183C187.505 33.5183 187.505 33.5183 187.505 33.5183C187.505 33.5183 187.505 33.5183 187.505 33.5183C187.505 33.5183 187.505 33.5183 187.505 33.5183C187.504 33.5183 187.504 33.5182 187.504 33.5182C187.504 33.5182 187.504 33.5182 187.504 33.5182C187.504 33.5182 187.504 33.5182 187.504 33.5182C187.504 33.5182 187.504 33.5182 187.371 34C187.237 34.4818 187.237 34.4818 187.237 34.4818C187.237 34.4818 187.237 34.4818 187.237 34.4818L187.237 34.4818C187.237 34.4818 187.237 34.4818 187.237 34.4818C187.237 34.4818 187.237 34.4818 187.237 34.4818C187.237 34.4818 187.237 34.4818 187.237 34.4818C187.237 34.4818 187.237 34.4818 187.237 34.4818C187.237 34.4818 187.237 34.4818 187.237 34.4818C187.237 34.4818 187.237 34.4818 187.237 34.4818C187.237 34.4818 187.237 34.4818 187.237 34.4818C187.237 34.4819 187.237 34.4819 187.237 34.4819C187.237 34.4819 187.237 34.4819 187.237 34.4819C187.237 34.4819 187.237 34.4819 187.237 34.4819C187.237 34.4819 187.237 34.4819 187.237 34.4819C187.237 34.4819 187.238 34.482 187.238 34.482C187.238 34.482 187.238 34.482 187.238 34.482C187.238 34.482 187.238 34.482 187.238 34.482C187.238 34.482 187.238 34.482 187.238 34.4821C187.238 34.4821 187.238 34.4821 187.238 34.4821C187.238 34.4821 187.238 34.4821 187.238 34.4821C187.238 34.4821 187.238 34.4822 187.238 34.4822C187.238 34.4822 187.238 34.4822 187.238 34.4822C187.238 34.4822 187.238 34.4822 187.239 34.4822C187.239 34.4823 187.239 34.4823 187.239 34.4823C187.239 34.4823 187.239 34.4823 187.239 34.4823C187.239 34.4823 187.239 34.4824 187.239 34.4824C187.239 34.4824 187.239 34.4824 187.239 34.4824C187.239 34.4824 187.239 34.4825 187.239 34.4825C187.239 34.4825 187.24 34.4825 187.24 34.4825C187.24 34.4825 187.24 34.4826 187.24 34.4826C187.24 34.4826 187.24 34.4826 187.24 34.4826C187.24 34.4827 187.24 34.4827 187.24 34.4827C187.24 34.4827 187.24 34.4827 187.24 34.4828C187.24 34.4828 187.241 34.4828 187.241 34.4828C187.241 34.4828 187.241 34.4829 187.241 34.4829C187.241 34.4829 187.241 34.4829 187.241 34.4829C187.241 34.483 187.241 34.483 187.241 34.483C187.241 34.483 187.241 34.4831 187.242 34.4831C187.242 34.4831 187.242 34.4831 187.242 34.4832C187.242 34.4832 187.242 34.4832 187.242 34.4832C187.242 34.4832 187.242 34.4833 187.242 34.4833C187.242 34.4833 187.243 34.4833 187.243 34.4834C187.243 34.4834 187.243 34.4834 187.243 34.4835C187.243 34.4835 187.243 34.4835 187.243 34.4835C187.243 34.4836 187.243 34.4836 187.243 34.4836C187.244 34.4836 187.244 34.4837 187.244 34.4837C187.244 34.4837 187.244 34.4838 187.244 34.4838C187.244 34.4838 187.244 34.4838 187.244 34.4839C187.245 34.4839 187.245 34.4839 187.245 34.484C187.245 34.484 187.245 34.484 187.245 34.484C187.245 34.4841 187.245 34.4841 187.245 34.4841C187.245 34.4842 187.246 34.4842 187.246 34.4842C187.246 34.4843 187.246 34.4843 187.246 34.4843C187.246 34.4844 187.246 34.4844 187.246 34.4844C187.247 34.4845 187.247 34.4845 187.247 34.4845C187.247 34.4846 187.247 34.4846 187.247 34.4846C187.247 34.4847 187.247 34.4847 187.248 34.4847C187.248 34.4848 187.248 34.4848 187.248 34.4848C187.248 34.4849 187.248 34.4849 187.248 34.4849C187.248 34.485 187.249 34.485 187.249 34.4851C187.249 34.4851 187.249 34.4851 187.249 34.4852C187.249 34.4852 187.249 34.4852 187.249 34.4853C187.25 34.4853 187.25 34.4854 187.25 34.4854C187.25 34.4854 187.25 34.4855 187.25 34.4855C187.25 34.4855 187.251 34.4856 187.251 34.4856C187.251 34.4857 187.251 34.4857 187.251 34.4857C187.251 34.4858 187.251 34.4858 187.252 34.4859C187.252 34.4859 187.252 34.486 187.252 34.486C187.252 34.486 187.252 34.4861 187.253 34.4861C187.253 34.4862 187.253 34.4862 187.253 34.4862C187.253 34.4863 187.253 34.4863 187.253 34.4864C187.254 34.4864 187.254 34.4865 187.254 34.4865C187.254 34.4865 187.254 34.4866 187.254 34.4866C187.255 34.4867 187.255 34.4867 187.255 34.4868C187.255 34.4868 187.255 34.4869 187.255 34.4869C187.256 34.487 187.256 34.487 187.256 34.487C187.256 34.4871 187.256 34.4871 187.256 34.4872C187.257 34.4872 187.257 34.4873 187.257 34.4873C187.257 34.4874 187.257 34.4874 187.257 34.4875C187.258 34.4875 187.258 34.4876 187.258 34.4876C187.258 34.4877 187.258 34.4877 187.258 34.4878C187.259 34.4878 187.259 34.4879 187.259 34.4879C187.259 34.488 187.259 34.488 187.26 34.4881C187.26 34.4881 187.26 34.4882 187.26 34.4882C187.26 34.4883 187.26 34.4883 187.261 34.4884C187.261 34.4884 187.261 34.4885 187.261 34.4885C187.261 34.4886 187.262 34.4886 187.262 34.4887C187.262 34.4887 187.262 34.4888 187.262 34.4888C187.263 34.4889 187.263 34.489 187.263 34.489C187.263 34.4891 187.263 34.4891 187.264 34.4892C187.264 34.4892 187.264 34.4893 187.264 34.4893C187.264 34.4894 187.264 34.4895 187.265 34.4895C187.265 34.4896 187.265 34.4896 187.265 34.4897C187.266 34.4897 187.266 34.4898 187.266 34.4898C187.266 34.4899 187.266 34.49 187.267 34.49C187.267 34.4901 187.267 34.4901 187.267 34.4902C187.267 34.4903 187.268 34.4903 187.268 34.4904C187.268 34.4904 187.268 34.4905 187.268 34.4906C187.269 34.4906 187.269 34.4907 187.269 34.4907C187.269 34.4908 187.27 34.4909 187.27 34.4909C187.27 34.491 187.27 34.491 187.27 34.4911C187.271 34.4912 187.271 34.4912 187.271 34.4913C187.271 34.4913 187.272 34.4914 187.272 34.4915C187.272 34.4915 187.272 34.4916 187.272 34.4917C187.273 34.4917 187.273 34.4918 187.273 34.4919C187.273 34.4919 187.274 34.492 187.274 34.492C187.274 34.4921 187.274 34.4922 187.275 34.4922C187.275 34.4923 187.275 34.4924 187.275 34.4924C187.275 34.4925 187.276 34.4926 187.276 34.4926C187.276 34.4927 187.276 34.4928 187.277 34.4928C187.277 34.4929 187.277 34.493 187.277 34.493C187.278 34.4931 187.278 34.4932 187.278 34.4932C187.278 34.4933 187.279 34.4934 187.279 34.4935C187.279 34.4935 187.279 34.4936 187.28 34.4937C187.28 34.4937 187.28 34.4938 187.28 34.4939C187.281 34.4939 187.281 34.494 187.281 34.4941C187.281 34.4941 187.282 34.4942 187.282 34.4943C187.282 34.4944 187.282 34.4944 187.283 34.4945C187.283 34.4946 187.283 34.4947 187.283 34.4947C187.284 34.4948 187.284 34.4949 187.284 34.4949C187.285 34.495 187.285 34.4951 187.285 34.4952C187.285 34.4952 187.286 34.4953 187.286 34.4954C187.286 34.4955 187.286 34.4955 187.287 34.4956C187.287 34.4957 187.287 34.4958 187.287 34.4958C187.288 34.4959 187.288 34.496 187.288 34.4961C187.289 34.4961 187.289 34.4962 187.289 34.4963C187.289 34.4964 187.29 34.4964 187.29 34.4965C187.29 34.4966 187.291 34.4967 187.291 34.4968C187.291 34.4968 187.291 34.4969 187.292 34.497C187.292 34.4971 187.292 34.4972 187.293 34.4972C187.293 34.4973 187.293 34.4974 187.293 34.4975C187.294 34.4976 187.294 34.4976 187.294 34.4977C187.295 34.4978 187.295 34.4979 187.295 34.498C187.295 34.498 187.296 34.4981 187.296 34.4982C187.296 34.4983 187.297 34.4984 187.297 34.4984C187.297 34.4985 187.297 34.4986 187.298 34.4987C187.298 34.4988 187.298 34.4989 187.299 34.4989C187.299 34.499 187.299 34.4991 187.3 34.4992C187.3 34.4993 187.3 34.4994 187.3 34.4994C187.301 34.4995 187.301 34.4996 187.301 34.4997C187.302 34.4998 187.302 34.4999 187.302 34.5C187.303 34.5 187.303 34.5001 187.303 34.5002C187.304 34.5003 187.304 34.5004 187.304 34.5005C187.305 34.5006 187.305 34.5007 187.305 34.5007C187.305 34.5008 187.306 34.5009 187.306 34.501C187.306 34.5011 187.307 34.5012 187.307 34.5013C187.307 34.5014 187.308 34.5015 187.308 34.5015C187.308 34.5016 187.309 34.5017 187.309 34.5018C187.309 34.5019 187.31 34.502 187.31 34.5021C187.31 34.5022 187.311 34.5023 187.311 34.5024C187.311 34.5024 187.312 34.5025 187.312 34.5026C187.312 34.5027 187.313 34.5028 187.313 34.5029C187.313 34.503 187.314 34.5031 187.314 34.5032C187.314 34.5033 187.315 34.5034 187.315 34.5035C187.315 34.5036 187.316 34.5037 187.316 34.5038C187.316 34.5038 187.317 34.5039 187.317 34.504C187.317 34.5041 187.318 34.5042 187.318 34.5043C187.318 34.5044 187.319 34.5045 187.319 34.5046C187.319 34.5047 187.32 34.5048 187.32 34.5049C187.32 34.505 187.321 34.5051 187.321 34.5052C187.322 34.5053 187.322 34.5054 187.322 34.5055C187.323 34.5056 187.323 34.5057 187.323 34.5058C187.324 34.5059 187.324 34.506 187.324 34.5061C187.325 34.5062 187.325 34.5063 187.325 34.5064C187.326 34.5065 187.326 34.5066 187.327 34.5067C187.327 34.5068 187.327 34.5069 187.328 34.507C187.328 34.5071 187.328 34.5072 187.329 34.5073C187.329 34.5074 187.329 34.5075 187.33 34.5076C187.33 34.5077 187.331 34.5078 187.331 34.5079C187.331 34.508 187.332 34.5081 187.332 34.5082C187.332 34.5083 187.333 34.5084 187.333 34.5085C187.334 34.5086 187.334 34.5087 187.334 34.5088C187.335 34.5089 187.335 34.5091 187.335 34.5092C187.336 34.5093 187.336 34.5094 187.337 34.5095C187.337 34.5096 187.337 34.5097 187.338 34.5098C187.338 34.5099 187.339 34.51 187.339 34.5101C187.339 34.5102 187.34 34.5103 187.34 34.5104C187.34 34.5105 187.341 34.5107 187.341 34.5108C187.342 34.5109 187.342 34.511 187.342 34.5111C187.343 34.5112 187.343 34.5113 187.344 34.5114C187.344 34.5115 187.344 34.5116 187.345 34.5118C187.345 34.5119 187.346 34.512 187.346 34.5121C187.346 34.5122 187.347 34.5123 187.347 34.5124C187.348 34.5125 187.348 34.5126 187.348 34.5128C187.349 34.5129 187.349 34.513 187.35 34.5131C187.35 34.5132 187.35 34.5133 187.351 34.5134C187.351 34.5135 187.352 34.5137 187.352 34.5138C187.352 34.5139 187.353 34.514 187.353 34.5141C187.354 34.5142 187.354 34.5143 187.355 34.5145C187.355 34.5146 187.355 34.5147 187.356 34.5148C187.356 34.5149 187.357 34.515 187.357 34.5152C187.357 34.5153 187.358 34.5154 187.358 34.5155C187.359 34.5156 187.359 34.5157 187.36 34.5159C187.36 34.516 187.36 34.5161 187.361 34.5162C187.361 34.5163 187.362 34.5165 187.362 34.5166C187.363 34.5167 187.363 34.5168 187.363 34.5169C187.364 34.517 187.364 34.5172 187.365 34.5173C187.365 34.5174 187.366 34.5175 187.366 34.5177C187.366 34.5178 187.367 34.5179 187.367 34.518C187.368 34.5181 187.368 34.5183 187.369 34.5184C187.369 34.5185 187.37 34.5186 187.37 34.5187C187.37 34.5189 187.371 34.519 187.371 34.5191C187.372 34.5192 187.372 34.5194 187.373 34.5195C187.373 34.5196 187.374 34.5197 187.374 34.5199C187.374 34.52 187.375 34.5201 187.375 34.5202C187.376 34.5204 187.376 34.5205 187.377 34.5206C187.377 34.5207 187.378 34.5209 187.378 34.521C187.378 34.5211 187.379 34.5212 187.379 34.5214C187.38 34.5215 187.38 34.5216 187.381 34.5218C187.381 34.5219 187.382 34.522 187.382 34.5221C187.383 34.5223 187.383 34.5224 187.384 34.5225C187.384 34.5226 187.384 34.5228 187.385 34.5229C187.385 34.523 187.386 34.5232 187.386 34.5233C187.387 34.5234 187.387 34.5236 187.388 34.5237C187.388 34.5238 187.389 34.5239 187.389 34.5241C187.39 34.5242 187.39 34.5243 187.391 34.5245C187.391 34.5246 187.392 34.5247 187.392 34.5249C187.392 34.525 187.393 34.5251 187.393 34.5253C187.394 34.5254 187.394 34.5255 187.395 34.5257C187.395 34.5258 187.396 34.5259 187.396 34.5261C187.397 34.5262 187.397 34.5263 187.398 34.5265C187.398 34.5266 187.399 34.5267 187.399 34.5269C187.4 34.527 187.4 34.5271 187.401 34.5273C187.401 34.5274 187.402 34.5276 187.402 34.5277C187.403 34.5278 187.403 34.528 187.404 34.5281C187.404 34.5282 187.405 34.5284 187.405 34.5285C187.406 34.5287 187.406 34.5288 187.407 34.5289C187.407 34.5291 187.408 34.5292 187.408 34.5294C187.409 34.5295 187.409 34.5296 187.41 34.5298C187.41 34.5299 187.411 34.53 187.411 34.5302C187.412 34.5303 187.412 34.5305 187.413 34.5306C187.413 34.5308 187.414 34.5309 187.414 34.531C187.415 34.5312 187.415 34.5313 187.416 34.5315C187.416 34.5316 187.417 34.5317 187.417 34.5319C187.418 34.532 187.418 34.5322 187.419 34.5323C187.419 34.5325 187.42 34.5326 187.42 34.5327C187.421 34.5329 187.421 34.533 187.422 34.5332C187.422 34.5333 187.423 34.5335 187.423 34.5336C187.424 34.5338 187.425 34.5339 187.425 34.5341C187.426 34.5342 187.426 34.5343 187.427 34.5345C187.427 34.5346 187.428 34.5348 187.428 34.5349C187.429 34.5351 187.429 34.5352 187.43 34.5354C187.43 34.5355 187.431 34.5357 187.431 34.5358C187.432 34.536 187.432 34.5361 187.433 34.5363C187.434 34.5364 187.434 34.5366 187.435 34.5367C187.435 34.5369 187.436 34.537 187.436 34.5372C187.437 34.5373 187.437 34.5375 187.438 34.5376C187.438 34.5378 187.439 34.5379 187.44 34.5381C187.44 34.5382 187.441 34.5384 187.441 34.5385C187.442 34.5387 187.442 34.5388 187.443 34.539C187.443 34.5391 187.444 34.5393 187.444 34.5394C187.445 34.5396 187.446 34.5397 187.446 34.5399C187.447 34.5401 187.447 34.5402 187.448 34.5404C187.448 34.5405 187.449 34.5407 187.449 34.5408C187.45 34.541 187.451 34.5411 187.451 34.5413C187.452 34.5414 187.452 34.5416 187.453 34.5418C187.453 34.5419 187.454 34.5421 187.454 34.5422C187.455 34.5424 187.456 34.5425 187.456 34.5427C187.457 34.5429 187.457 34.543 187.458 34.5432C187.458 34.5433 187.459 34.5435 187.46 34.5436C187.46 34.5438 187.461 34.544 187.461 34.5441C187.462 34.5443 187.462 34.5444 187.463 34.5446C187.464 34.5448 187.464 34.5449 187.465 34.5451C187.465 34.5452 187.466 34.5454 187.467 34.5456C187.467 34.5457 187.468 34.5459 187.468 34.5461C187.469 34.5462 187.469 34.5464 187.47 34.5465C187.471 34.5467 187.471 34.5469 187.472 34.547C187.472 34.5472 187.473 34.5474 187.474 34.5475C187.474 34.5477 187.475 34.5478 187.475 34.548C187.476 34.5482 187.476 34.5483 187.477 34.5485C187.478 34.5487 187.478 34.5488 187.479 34.549C187.479 34.5492 187.48 34.5493 187.481 34.5495C187.481 34.5497 187.482 34.5498 187.482 34.55C187.483 34.5502 187.484 34.5503 187.484 34.5505C187.485 34.5507 187.485 34.5508 187.486 34.551C187.487 34.5512 187.487 34.5513 187.488 34.5515C187.488 34.5517 187.489 34.5518 187.49 34.552C187.49 34.5522 187.491 34.5523 187.492 34.5525C187.492 34.5527 187.493 34.5529 187.493 34.553C187.494 34.5532 187.495 34.5534 187.495 34.5535C187.496 34.5537 187.496 34.5539 187.497 34.5541C187.498 34.5542 187.498 34.5544 187.499 34.5546C187.5 34.5547 187.5 34.5549 187.501 34.5551C187.501 34.5553 187.502 34.5554 187.503 34.5556C187.503 34.5558 187.504 34.556 187.505 34.5561C187.505 34.5563 187.506 34.5565 187.506 34.5566C187.507 34.5568 187.508 34.557 187.508 34.5572C187.509 34.5573 187.51 34.5575 187.51 34.5577C187.511 34.5579 187.511 34.558 187.512 34.5582C187.513 34.5584 187.513 34.5586 187.514 34.5588C187.515 34.5589 187.515 34.5591 187.516 34.5593C187.517 34.5595 187.517 34.5596 187.518 34.5598C187.518 34.56 187.519 34.5602 187.52 34.5604C187.52 34.5605 187.521 34.5607 187.522 34.5609C187.522 34.5611 187.523 34.5613 187.524 34.5614C187.524 34.5616 187.525 34.5618 187.526 34.562C187.526 34.5622 187.527 34.5623 187.528 34.5625C187.528 34.5627 187.529 34.5629 187.529 34.5631C187.53 34.5632 187.531 34.5634 187.531 34.5636C187.532 34.5638 187.533 34.564 187.533 34.5642C187.534 34.5643 187.535 34.5645 187.535 34.5647C187.536 34.5649 187.537 34.5651 187.537 34.5653C187.538 34.5654 187.539 34.5656 187.539 34.5658C187.54 34.566 187.541 34.5662 187.541 34.5664C187.542 34.5666 187.543 34.5667 187.543 34.5669C187.544 34.5671 187.545 34.5673 187.545 34.5675C187.546 34.5677 187.547 34.5679 187.547 34.568C187.548 34.5682 187.549 34.5684 187.549 34.5686C187.55 34.5688 187.551 34.569 187.551 34.5692C187.552 34.5694 187.553 34.5696 187.554 34.5697C187.554 34.5699 187.555 34.5701 187.556 34.5703C187.556 34.5705 187.557 34.5707 187.558 34.5709C187.558 34.5711 187.559 34.5713 187.56 34.5715C187.56 34.5716 187.561 34.5718 187.562 34.572C187.562 34.5722 187.563 34.5724 187.564 34.5726C187.565 34.5728 187.565 34.573 187.566 34.5732C187.567 34.5734 187.567 34.5736 187.568 34.5738C187.569 34.574 187.569 34.5741 187.57 34.5743C187.571 34.5745 187.572 34.5747 187.572 34.5749C187.573 34.5751 187.574 34.5753 187.574 34.5755C187.575 34.5757 187.576 34.5759 187.576 34.5761C187.577 34.5763 187.578 34.5765 187.579 34.5767C187.579 34.5769 187.58 34.5771 187.581 34.5773C187.581 34.5775 187.582 34.5777 187.583 34.5779C187.584 34.5781 187.584 34.5783 187.585 34.5785C187.586 34.5787 187.586 34.5789 187.587 34.5791C187.588 34.5793 187.589 34.5795 187.589 34.5797C187.59 34.5799 187.591 34.5801 187.591 34.5803C187.592 34.5805 187.593 34.5807 187.594 34.5809C187.594 34.5811 187.595 34.5813 187.596 34.5815C187.596 34.5817 187.597 34.5819 187.598 34.5821C187.599 34.5823 187.599 34.5825 187.6 34.5827C187.601 34.5829 187.602 34.5831 187.602 34.5833C187.603 34.5835 187.604 34.5837 187.604 34.5839C187.605 34.5841 187.606 34.5843 187.607 34.5845C187.607 34.5847 187.608 34.5849 187.609 34.5851C187.61 34.5853 187.61 34.5855 187.611 34.5857C187.612 34.5859 187.613 34.5861 187.613 34.5864C187.614 34.5866 187.615 34.5868 187.616 34.587C187.616 34.5872 187.617 34.5874 187.618 34.5876C187.619 34.5878 187.619 34.588 187.62 34.5882C187.621 34.5884 187.622 34.5886 187.622 34.5888C187.623 34.5891 187.624 34.5893 187.625 34.5895C187.625 34.5897 187.626 34.5899 187.627 34.5901C187.628 34.5903 187.628 34.5905 187.629 34.5907C187.63 34.5909 187.631 34.5912 187.631 34.5914C187.632 34.5916 187.633 34.5918 187.634 34.592C187.634 34.5922 187.635 34.5924 187.636 34.5926C187.637 34.5928 187.637 34.5931 187.638 34.5933C187.639 34.5935 187.64 34.5937 187.641 34.5939C187.641 34.5941 187.642 34.5943 187.643 34.5946C187.644 34.5948 187.644 34.595 187.645 34.5952C187.646 34.5954 187.647 34.5956 187.648 34.5958C187.648 34.5961 187.649 34.5963 187.65 34.5965C187.651 34.5967 187.651 34.5969 187.652 34.5971C187.653 34.5974 187.654 34.5976 187.655 34.5978C187.655 34.598 187.656 34.5982 187.657 34.5984C187.658 34.5987 187.658 34.5989 187.659 34.5991C187.66 34.5993 187.661 34.5995 187.662 34.5998C187.662 34.6 187.663 34.6002 187.664 34.6004C187.665 34.6006 187.666 34.6009 187.666 34.6011C187.667 34.6013 187.668 34.6015 187.669 34.6017C187.67 34.602 187.67 34.6022 187.671 34.6024C187.672 34.6026 187.673 34.6028 187.673 34.6031C187.674 34.6033 187.675 34.6035 187.676 34.6037C187.677 34.604 187.678 34.6042 187.678 34.6044C187.679 34.6046 187.68 34.6048 187.681 34.6051C187.682 34.6053 187.682 34.6055 187.683 34.6057C187.684 34.606 187.685 34.6062 187.686 34.6064C187.686 34.6066 187.687 34.6069 187.688 34.6071C187.689 34.6073 187.69 34.6075 187.69 34.6078C187.691 34.608 187.692 34.6082 187.693 34.6085C187.694 34.6087 187.695 34.6089 187.695 34.6091C187.696 34.6094 187.697 34.6096 187.698 34.6098C187.699 34.61 187.699 34.6103 187.7 34.6105C187.701 34.6107 187.702 34.611 187.703 34.6112C187.704 34.6114 187.704 34.6117 187.705 34.6119C187.706 34.6121 187.707 34.6123 187.708 34.6126C187.709 34.6128 187.709 34.613 187.71 34.6133C187.711 34.6135 187.712 34.6137 187.713 34.614C187.714 34.6142 187.714 34.6144 187.715 34.6147C187.716 34.6149 187.717 34.6151 187.718 34.6154C187.719 34.6156 187.719 34.6158 187.72 34.6161C187.721 34.6163 187.722 34.6165 187.723 34.6168C187.724 34.617 187.724 34.6172 187.725 34.6175C187.726 34.6177 187.727 34.6179 187.728 34.6182C187.729 34.6184 187.73 34.6186 187.73 34.6189C187.731 34.6191 187.732 34.6194 187.733 34.6196C187.734 34.6198 187.735 34.6201 187.736 34.6203C187.736 34.6205 187.737 34.6208 187.738 34.621C187.739 34.6213 187.74 34.6215 187.741 34.6217C187.742 34.622 187.742 34.6222 187.743 34.6224C187.744 34.6227 187.745 34.6229 187.746 34.6232C187.747 34.6234 187.748 34.6236 187.748 34.6239C187.749 34.6241 187.75 34.6244 187.751 34.6246C187.752 34.6248 187.753 34.6251 187.754 34.6253C187.755 34.6256 187.755 34.6258 187.756 34.6261C187.757 34.6263 187.758 34.6265 187.759 34.6268C187.76 34.627 187.761 34.6273 187.762 34.6275C187.762 34.6278 187.763 34.628 187.764 34.6282C187.765 34.6285 187.766 34.6287 187.767 34.629C187.768 34.6292 187.769 34.6295 187.769 34.6297C187.77 34.63 187.771 34.6302 187.772 34.6304C187.773 34.6307 187.774 34.6309 187.775 34.6312C187.776 34.6314 187.777 34.6317 187.777 34.6319C187.778 34.6322 187.779 34.6324 187.78 34.6327C187.781 34.6329 187.782 34.6332 187.783 34.6334C187.784 34.6337 187.785 34.6339 187.785 34.6342C187.786 34.6344 187.787 34.6347 187.788 34.6349C187.789 34.6352 187.79 34.6354 187.791 34.6357C187.792 34.6359 187.793 34.6362 187.794 34.6364C187.794 34.6367 187.795 34.6369 187.796 34.6372C187.797 34.6374 187.798 34.6377 187.799 34.6379C187.8 34.6382 187.801 34.6384 187.802 34.6387C187.803 34.6389 187.804 34.6392 187.804 34.6394C187.805 34.6397 187.806 34.6399 187.807 34.6402C187.808 34.6404 187.809 34.6407 187.81 34.641C187.811 34.6412 187.812 34.6415 187.813 34.6417C187.814 34.642 187.815 34.6422 187.815 34.6425C187.816 34.6427 187.817 34.643 187.818 34.6433C187.819 34.6435 187.82 34.6438 187.821 34.644C187.822 34.6443 187.823 34.6445 187.824 34.6448C187.825 34.6451 187.826 34.6453 187.827 34.6456C187.827 34.6458 187.828 34.6461 187.829 34.6463C187.83 34.6466 187.831 34.6469 187.832 34.6471C187.833 34.6474 187.834 34.6476 187.835 34.6479C187.836 34.6482 187.837 34.6484 187.838 34.6487C187.839 34.6489 187.84 34.6492 187.841 34.6495C187.842 34.6497 187.842 34.65 187.843 34.6503C187.844 34.6505 187.845 34.6508 187.846 34.651C187.847 34.6513 187.848 34.6516 187.849 34.6518C187.85 34.6521 187.851 34.6524 187.852 34.6526C187.853 34.6529 187.854 34.6531 187.855 34.6534C187.856 34.6537 187.857 34.6539 187.858 34.6542C187.859 34.6545 187.86 34.6547 187.86 34.655C187.861 34.6553 187.862 34.6555 187.863 34.6558C187.864 34.6561 187.865 34.6563 187.866 34.6566C187.867 34.6569 187.868 34.6571 187.869 34.6574C187.87 34.6577 187.871 34.6579 187.872 34.6582C187.873 34.6585 187.874 34.6587 187.875 34.659C187.876 34.6593 187.877 34.6595 187.878 34.6598C187.879 34.6601 187.88 34.6604 187.881 34.6606C187.882 34.6609 187.883 34.6612 187.884 34.6614C187.885 34.6617 187.886 34.662 187.887 34.6622C187.888 34.6625 187.888 34.6628 187.889 34.6631C187.89 34.6633 187.891 34.6636 187.892 34.6639C187.893 34.6641 187.894 34.6644 187.895 34.6647C187.896 34.665 187.897 34.6652 187.898 34.6655C187.899 34.6658 187.9 34.6661 187.901 34.6663C187.902 34.6666 187.903 34.6669 187.904 34.6672C187.905 34.6674 187.906 34.6677 187.907 34.668C187.908 34.6683 187.909 34.6685 187.91 34.6688C187.911 34.6691 187.912 34.6694 187.913 34.6696C187.914 34.6699 187.915 34.6702 187.916 34.6705C187.917 34.6707 187.918 34.671 187.919 34.6713C187.92 34.6716 187.921 34.6719 187.922 34.6721C187.923 34.6724 187.924 34.6727 187.925 34.673C187.926 34.6732 187.927 34.6735 187.928 34.6738C187.929 34.6741 187.93 34.6744 187.931 34.6746C187.932 34.6749 187.933 34.6752 187.934 34.6755C187.935 34.6758 187.936 34.676 187.937 34.6763C187.938 34.6766 187.939 34.6769 187.94 34.6772C187.941 34.6775 187.942 34.6777 187.943 34.678C187.944 34.6783 187.945 34.6786 187.946 34.6789C187.947 34.6792 187.948 34.6794 187.949 34.6797C187.95 34.68 187.952 34.6803 187.953 34.6806C187.954 34.6809 187.955 34.6811 187.956 34.6814C187.957 34.6817 187.958 34.682 187.959 34.6823C187.96 34.6826 187.961 34.6829 187.962 34.6831C187.963 34.6834 187.964 34.6837 187.965 34.684C187.966 34.6843 187.967 34.6846 187.968 34.6849C187.969 34.6851 187.97 34.6854 187.971 34.6857C187.972 34.686 187.973 34.6863 187.974 34.6866C187.975 34.6869 187.976 34.6872 187.977 34.6875C187.978 34.6877 187.979 34.688 187.98 34.6883C187.981 34.6886 187.983 34.6889 187.984 34.6892C187.985 34.6895 187.986 34.6898 187.987 34.6901C187.988 34.6904 187.989 34.6907 187.99 34.6909C187.991 34.6912 187.992 34.6915 187.993 34.6918C187.994 34.6921 187.995 34.6924 187.996 34.6927C187.997 34.693 187.998 34.6933 187.999 34.6936C188 34.6939 188.001 34.6942 188.003 34.6945C188.004 34.6948 188.005 34.695 188.006 34.6953C188.007 34.6956 188.008 34.6959 188.009 34.6962C188.01 34.6965 188.011 34.6968 188.012 34.6971C188.013 34.6974 188.014 34.6977 188.015 34.698C188.016 34.6983 188.017 34.6986 188.018 34.6989C188.02 34.6992 188.021 34.6995 188.022 34.6998C188.023 34.7001 188.024 34.7004 188.025 34.7007C188.026 34.701 188.027 34.7013 188.028 34.7016C188.029 34.7019 188.03 34.7022 188.031 34.7025C188.032 34.7028 188.034 34.7031 188.035 34.7034C188.036 34.7037 188.037 34.704 188.038 34.7043C188.039 34.7046 188.04 34.7049 188.041 34.7052C188.042 34.7055 188.043 34.7058 188.044 34.7061C188.045 34.7064 188.047 34.7067 188.048 34.707C188.049 34.7073 188.05 34.7076 188.051 34.7079C188.052 34.7082 188.053 34.7085 188.054 34.7088C188.055 34.7091 188.056 34.7094 188.057 34.7097C188.059 34.71 188.06 34.7103 188.061 34.7106C188.062 34.7109 188.063 34.7113 188.064 34.7116C188.065 34.7119 188.066 34.7122 188.067 34.7125C188.068 34.7128 188.07 34.7131 188.071 34.7134C188.072 34.7137 188.073 34.714 188.074 34.7143C188.075 34.7146 188.076 34.7149 188.077 34.7152C188.078 34.7155 188.08 34.7159 188.081 34.7162C188.082 34.7165 188.083 34.7168 188.084 34.7171C188.085 34.7174 188.086 34.7177 188.087 34.718C188.088 34.7183 188.09 34.7186 188.091 34.719C188.092 34.7193 188.093 34.7196 188.094 34.7199C188.095 34.7202 188.096 34.7205 188.097 34.7208C188.099 34.7211 188.1 34.7214 188.101 34.7218L188.368 33.7582ZM187.871 34V32.08H186.871V34H187.871ZM187.371 32.58C188.355 32.58 189.181 32.4224 189.707 31.9841L189.067 31.2159C188.824 31.4176 188.307 31.58 187.371 31.58V32.58ZM189.691 31.9963C190.183 31.618 190.532 31.1363 190.725 30.5581L189.776 30.2419C189.649 30.6237 189.422 30.942 189.082 31.2037L189.691 31.9963ZM190.721 30.5682L191.921 27.2082L190.98 26.8718L189.78 30.2318L190.721 30.5682ZM191.922 27.2064C192.297 26.1449 192.696 25.4675 193.088 25.1015L192.405 24.3705C191.838 24.9005 191.372 25.7591 190.979 26.8736L191.922 27.2064ZM193.088 25.1015C193.515 24.7028 193.994 24.4217 194.529 24.2528L194.228 23.2992C193.547 23.5143 192.938 23.8732 192.405 24.3705L193.088 25.1015ZM194.879 23.776V23.584H193.879V23.776H194.879ZM194.409 23.0849C193.433 23.0258 192.536 22.746 191.71 22.2446L191.191 23.0994C192.157 23.686 193.212 24.0142 194.348 24.0831L194.409 23.0849ZM191.728 22.256C190.933 21.7261 190.282 21.0178 189.774 20.1215L188.904 20.6145C189.484 21.6382 190.24 22.4659 191.173 23.088L191.728 22.256ZM189.783 20.1387C189.313 19.2273 189.071 18.172 189.071 16.96H188.071C188.071 18.308 188.341 19.5247 188.894 20.5973L189.783 20.1387ZM189.071 16.96C189.071 14.9894 189.417 13.5679 190.043 12.6293L189.211 12.0746C188.428 13.2481 188.071 14.8986 188.071 16.96H189.071ZM190.041 12.6322C190.709 11.6447 191.634 10.9766 192.839 10.6239L192.558 9.66413C191.139 10.0794 190.017 10.8833 189.212 12.0718L190.041 12.6322ZM192.846 10.6216C194.131 10.2241 195.663 10.02 197.451 10.02V9.02C195.591 9.02 193.954 9.2319 192.551 9.66636L192.846 10.6216ZM197.451 10.02C198.872 10.02 200.195 10.099 201.419 10.2559L201.546 9.26406C200.274 9.101 198.909 9.02 197.451 9.02V10.02ZM201.432 10.2574C202.649 10.3823 203.834 10.6163 204.988 10.9593L205.273 10.0007C204.059 9.63972 202.812 9.39374 201.534 9.26261L201.432 10.2574ZM204.631 10.48V34H205.631V10.48H204.631ZM205.131 33.5H200.811V34.5H205.131V33.5ZM201.311 34V24.64H200.311V34H201.311ZM200.811 24.14H199.179V25.14H200.811V24.14ZM199.179 24.14C198.333 24.14 197.583 24.3669 196.957 24.8415C196.335 25.3125 195.871 25.9999 195.543 26.8624L196.478 27.2176C196.758 26.4801 197.126 25.9675 197.561 25.6385C197.99 25.3131 198.52 25.14 199.179 25.14V24.14ZM195.54 26.8718L194.34 30.2318L195.281 30.5682L196.481 27.2082L195.54 26.8718ZM194.342 30.2256C193.844 31.5636 193.27 32.5104 192.641 33.1103L193.332 33.8337C194.111 33.0896 194.753 31.9884 195.279 30.5744L194.342 30.2256ZM192.633 33.1184C192.086 33.6657 191.242 33.98 190.011 33.98V34.98C191.404 34.98 192.543 34.6223 193.34 33.8256L192.633 33.1184ZM197.451 22.02H200.811V21.02H197.451V22.02ZM201.311 21.52V12.4H200.311V21.52H201.311ZM200.811 11.9H197.451V12.9H200.811V11.9ZM197.451 11.9C195.942 11.9 194.697 12.2348 193.778 12.9696L194.403 13.7504C195.084 13.2052 196.079 12.9 197.451 12.9V11.9ZM193.788 12.9619C192.793 13.718 192.391 15.129 192.391 16.96H193.391C193.391 15.207 193.788 14.218 194.393 13.7581L193.788 12.9619ZM192.391 16.96C192.391 18.7948 192.795 20.2117 193.778 20.9984L194.403 20.2176C193.786 19.7243 193.391 18.7092 193.391 16.96H192.391ZM193.788 21.0061C194.706 21.7034 195.947 22.02 197.451 22.02V21.02C196.074 21.02 195.076 20.7286 194.393 20.2099L193.788 21.0061ZM210.906 34L210.407 33.9651L210.369 34.5H210.906V34ZM212.586 10V9.5H212.119L212.087 9.96509L212.586 10ZM217.626 10L218.094 9.8246L217.972 9.5H217.626V10ZM223.29 25.12L222.821 25.2954L222.943 25.62H223.29V25.12ZM223.482 25.12V25.62H223.828L223.95 25.2954L223.482 25.12ZM229.146 10V9.5H228.799L228.677 9.8246L229.146 10ZM234.186 10L234.684 9.96509L234.652 9.5H234.186V10ZM235.866 34V34.5H236.402L236.364 33.9651L235.866 34ZM231.786 34L231.287 34.0351L231.32 34.5H231.786V34ZM230.586 16.96L231.084 16.9249L231.052 16.46H230.586V16.96ZM230.346 16.96V16.46H229.999L229.877 16.7844L230.346 16.96ZM225.306 30.4V30.9H225.652L225.774 30.5756L225.306 30.4ZM221.466 30.4L220.997 30.5756L221.119 30.9H221.466V30.4ZM216.426 16.96L216.894 16.7844L216.772 16.46H216.426V16.96ZM216.186 16.96V16.46H215.72L215.687 16.9249L216.186 16.96ZM214.986 34V34.5H215.452L215.484 34.0351L214.986 34ZM211.404 34.0349L213.084 10.0349L212.087 9.96509L210.407 33.9651L211.404 34.0349ZM212.586 10.5H217.626V9.5H212.586V10.5ZM217.157 10.1754L222.821 25.2954L223.758 24.9446L218.094 9.8246L217.157 10.1754ZM223.29 25.62H223.482V24.62H223.29V25.62ZM223.95 25.2954L229.614 10.1754L228.677 9.8246L223.013 24.9446L223.95 25.2954ZM229.146 10.5H234.186V9.5H229.146V10.5ZM233.687 10.0349L235.367 34.0349L236.364 33.9651L234.684 9.96509L233.687 10.0349ZM235.866 33.5H231.786V34.5H235.866V33.5ZM232.284 33.9649L231.084 16.9249L230.087 16.9951L231.287 34.0351L232.284 33.9649ZM230.586 16.46H230.346V17.46H230.586V16.46ZM229.877 16.7844L224.837 30.2244L225.774 30.5756L230.814 17.1356L229.877 16.7844ZM225.306 29.9H221.466V30.9H225.306V29.9ZM221.934 30.2244L216.894 16.7844L215.957 17.1356L220.997 30.5756L221.934 30.2244ZM216.426 16.46H216.186V17.46H216.426V16.46ZM215.687 16.9249L214.487 33.9649L215.484 34.0351L216.684 16.9951L215.687 16.9249ZM214.986 33.5H210.906V34.5H214.986V33.5ZM240.42 34.24H239.92V34.74H240.42V34.24ZM240.42 28.96V28.46H239.92V28.96H240.42ZM244.74 28.96H245.24V28.46H244.74V28.96ZM244.74 34.24V34.74H245.24V34.24H244.74ZM240.92 34.24V28.96H239.92V34.24H240.92ZM240.42 29.46H244.74V28.46H240.42V29.46ZM244.24 28.96V34.24H245.24V28.96H244.24ZM244.74 33.74H240.42V34.74H244.74V33.74ZM250.016 34H249.516V34.5H250.016V34ZM250.016 0.399998V-0.100002H249.516V0.399998H250.016ZM254.336 0.399998H254.836V-0.100002H254.336V0.399998ZM254.336 15.28H253.836V15.78H254.336V15.28ZM264.416 15.28V15.78H264.916V15.28H264.416ZM264.416 0.399998V-0.100002H263.916V0.399998H264.416ZM268.736 0.399998H269.236V-0.100002H268.736V0.399998ZM268.736 34V34.5H269.236V34H268.736ZM264.416 34H263.916V34.5H264.416V34ZM264.416 18.64H264.916V18.14H264.416V18.64ZM254.336 18.64V18.14H253.836V18.64H254.336ZM254.336 34V34.5H254.836V34H254.336ZM250.516 34V0.399998H249.516V34H250.516ZM250.016 0.899998H254.336V-0.100002H250.016V0.899998ZM253.836 0.399998V15.28H254.836V0.399998H253.836ZM254.336 15.78H264.416V14.78H254.336V15.78ZM264.916 15.28V0.399998H263.916V15.28H264.916ZM264.416 0.899998H268.736V-0.100002H264.416V0.899998ZM268.236 0.399998V34H269.236V0.399998H268.236ZM268.736 33.5H264.416V34.5H268.736V33.5ZM264.916 34V18.64H263.916V34H264.916ZM264.416 18.14H254.336V19.14H264.416V18.14ZM253.836 18.64V34H254.836V18.64H253.836ZM254.336 33.5H250.016V34.5H254.336V33.5ZM276.909 34H276.409V34.5H276.909V34ZM276.909 0.399998V-0.100002H276.409V0.399998H276.909ZM293.229 0.399998H293.729V-0.100002H293.229V0.399998ZM293.229 3.76V4.26H293.729V3.76H293.229ZM281.229 3.76V3.26H280.729V3.76H281.229ZM281.229 14.8H280.729V15.3H281.229V14.8ZM291.789 14.8H292.289V14.3H291.789V14.8ZM291.789 18.16V18.66H292.289V18.16H291.789ZM281.229 18.16V17.66H280.729V18.16H281.229ZM281.229 30.64H280.729V31.14H281.229V30.64ZM293.229 30.64H293.729V30.14H293.229V30.64ZM293.229 34V34.5H293.729V34H293.229ZM277.409 34V0.399998H276.409V34H277.409ZM276.909 0.899998H293.229V-0.100002H276.909V0.899998ZM292.729 0.399998V3.76H293.729V0.399998H292.729ZM293.229 3.26H281.229V4.26H293.229V3.26ZM280.729 3.76V14.8H281.729V3.76H280.729ZM281.229 15.3H291.789V14.3H281.229V15.3ZM291.289 14.8V18.16H292.289V14.8H291.289ZM291.789 17.66H281.229V18.66H291.789V17.66ZM280.729 18.16V30.64H281.729V18.16H280.729ZM281.229 31.14H293.229V30.14H281.229V31.14ZM292.729 30.64V34H293.729V30.64H292.729ZM293.229 33.5H276.909V34.5H293.229V33.5ZM304.759 34H304.259V34.5H304.759V34ZM304.759 3.76H305.259V3.26H304.759V3.76ZM297.079 3.76H296.579V4.26H297.079V3.76ZM297.079 0.399998V-0.100002H296.579V0.399998H297.079ZM316.759 0.399998H317.259V-0.100002H316.759V0.399998ZM316.759 3.76V4.26H317.259V3.76H316.759ZM309.079 3.76V3.26H308.579V3.76H309.079ZM309.079 34V34.5H309.579V34H309.079ZM305.259 34V3.76H304.259V34H305.259ZM304.759 3.26H297.079V4.26H304.759V3.26ZM297.579 3.76V0.399998H296.579V3.76H297.579ZM297.079 0.899998H316.759V-0.100002H297.079V0.899998ZM316.259 0.399998V3.76H317.259V0.399998H316.259ZM316.759 3.26H309.079V4.26H316.759V3.26ZM308.579 3.76V34H309.579V3.76H308.579ZM309.079 33.5H304.759V34.5H309.079V33.5Z" fill="black" mask="url(#path-1-outside-1_1_49)"/>
</svg>
